<svg width="150" height="150" viewBox="0 0 150 150" fill="none" xmlns="http://www.w3.org/2000/svg">
<path d="M44.9375 121.75H38.6875C37.4443 121.75 36.252 121.256 35.3729 120.377C34.4939 119.498 34 118.306 34 117.062V88.9375C34 87.6943 34.4939 86.502 35.3729 85.6229C36.252 84.7439 37.4443 84.25 38.6875 84.25H44.9375C46.1807 84.25 47.373 84.7439 48.2521 85.6229C49.1311 86.502 49.625 87.6943 49.625 88.9375V117.062C49.625 118.306 49.1311 119.498 48.2521 120.377C47.373 121.256 46.1807 121.75 44.9375 121.75ZM88.6875 121.75H82.4375C81.1943 121.75 80.002 121.256 79.1229 120.377C78.2439 119.498 77.75 118.306 77.75 117.062V70.1875C77.75 68.9443 78.2439 67.752 79.1229 66.8729C80.002 65.9939 81.1943 65.5 82.4375 65.5H88.6875C89.9307 65.5 91.123 65.9939 92.0021 66.8729C92.8811 67.752 93.375 68.9443 93.375 70.1875V117.062C93.375 118.306 92.8811 119.498 92.0021 120.377C91.123 121.256 89.9307 121.75 88.6875 121.75ZM110.562 121.75H104.312C103.069 121.75 101.877 121.256 100.998 120.377C100.119 119.498 99.625 118.306 99.625 117.062V48.3125C99.625 47.0693 100.119 45.877 100.998 44.9979C101.877 44.1189 103.069 43.625 104.312 43.625H110.562C111.806 43.625 112.998 44.1189 113.877 44.9979C114.756 45.877 115.25 47.0693 115.25 48.3125V117.062C115.25 118.306 114.756 119.498 113.877 120.377C112.998 121.256 111.806 121.75 110.562 121.75ZM66.8125 121.75H60.5625C59.3193 121.75 58.127 121.256 57.2479 120.377C56.3689 119.498 55.875 118.306 55.875 117.062V32.6875C55.875 31.4443 56.3689 30.252 57.2479 29.3729C58.127 28.4939 59.3193 28 60.5625 28H66.8125C68.0557 28 69.248 28.4939 70.1271 29.3729C71.0061 30.252 71.5 31.4443 71.5 32.6875V117.062C71.5 118.306 71.0061 119.498 70.1271 120.377C69.248 121.256 68.0557 121.75 66.8125 121.75Z" fill="black"/>
</svg>
