<svg width="150" height="150" viewBox="0 0 150 150" fill="none" xmlns="http://www.w3.org/2000/svg">
<path d="M45.1554 97.6065C55.5531 97.6065 62.9399 92.1044 62.9182 84.3928C62.9399 78.9339 59.3656 75.0348 52.5205 74.2333V73.8867C57.6544 73.1502 61.2936 69.706 61.2719 64.7237C61.2936 57.4886 54.7517 52.0298 45.2421 52.0298C35.6675 52.0298 28.6924 57.5753 28.6057 65.4602H38.8518C38.9384 62.4276 41.6678 60.3913 45.2421 60.3913C48.643 60.3913 50.9608 62.4492 50.9392 65.4169C50.9608 68.4929 48.2314 70.6158 44.2889 70.6158H39.9782V78.2408H44.2889C48.773 78.2408 51.6973 80.4503 51.654 83.5696C51.6973 86.7106 49.0112 88.8984 45.1987 88.8984C41.4079 88.8984 38.6135 86.8839 38.5052 83.9595H27.7176C27.8042 91.9744 35.0176 97.6065 45.1554 97.6065ZM65.9858 89.6349H87.4094V97H97.6555V89.6349H102.963V81.1868H97.6555V52.6364H84.1601L65.9858 81.2734V89.6349ZM87.626 81.1868H76.6434V80.8402L87.2794 63.9872H87.626V81.1868ZM116.953 74.0817C122.954 74.0817 127.806 69.2294 127.806 63.229C127.806 57.2287 122.954 52.3548 116.953 52.3548C110.931 52.3548 106.079 57.2287 106.079 63.229C106.079 69.2294 110.931 74.0817 116.953 74.0817ZM116.953 67.3232C114.679 67.3232 112.837 65.5035 112.837 63.229C112.837 60.9545 114.679 59.1133 116.953 59.1133C119.206 59.1133 121.047 60.9545 121.047 63.229C121.047 65.5035 119.206 67.3232 116.953 67.3232Z" fill="black"/>
</svg>
