<svg width="150" height="150" viewBox="0 0 150 150" fill="none" xmlns="http://www.w3.org/2000/svg">
<path d="M78.125 28.1426V56.7187C78.125 56.9259 78.2073 57.1247 78.3538 57.2712C78.5003 57.4177 78.6991 57.5 78.9063 57.5H107.482C107.56 57.5001 107.635 57.4773 107.699 57.4345C107.764 57.3917 107.814 57.3308 107.843 57.2595C107.873 57.1883 107.881 57.1098 107.866 57.0341C107.851 56.9584 107.814 56.8887 107.76 56.834L78.791 27.8652C78.7363 27.8108 78.6666 27.7738 78.5909 27.759C78.5152 27.7441 78.4367 27.752 78.3655 27.7817C78.2942 27.8113 78.2333 27.8614 78.1905 27.9257C78.1477 27.9899 78.1249 28.0654 78.125 28.1426V28.1426Z" fill="black"/>
<path d="M73.4375 63.75C73.0231 63.75 72.6257 63.5854 72.3326 63.2924C72.0396 62.9993 71.875 62.6019 71.875 62.1875V26.25H42.9688C42.3471 26.25 41.751 26.4969 41.3115 26.9365C40.8719 27.376 40.625 27.9721 40.625 28.5938V111.406C40.625 112.028 40.8719 112.624 41.3115 113.064C41.751 113.503 42.3471 113.75 42.9688 113.75H107.031C107.653 113.75 108.249 113.503 108.689 113.064C109.128 112.624 109.375 112.028 109.375 111.406V63.75H73.4375ZM93.75 95H56.25V88.75H93.75V95ZM93.75 79.375H56.25V73.125H93.75V79.375Z" fill="black"/>
</svg>
