<svg width="150" height="150" viewBox="0 0 150 150" fill="none" xmlns="http://www.w3.org/2000/svg">
<path d="M31.25 114.062C31.25 115.306 31.7439 116.498 32.6229 117.377C33.502 118.256 34.6943 118.75 35.9375 118.75H114.062C115.306 118.75 116.498 118.256 117.377 117.377C118.256 116.498 118.75 115.306 118.75 114.062V59.375H31.25V114.062ZM91.8301 66.4062H96.875V105.469H90.625V75.0566L83.7129 80.1504L80.0019 75.1191L91.8301 66.4062ZM68.3594 90.4883C66.6914 88.7812 63.916 88.0137 62.4785 88.0137H59.3535V81.7637H62.4785C63.4258 81.7637 65.8789 81.2559 67.416 79.6836C67.8319 79.2746 68.1601 78.7852 68.3807 78.2453C68.6013 77.7053 68.7097 77.1261 68.6992 76.543C68.6992 72.0059 63.1074 71.875 62.4707 71.875C59.084 71.875 57.8223 73.9473 57.7695 74.0352L56.1816 76.7266L50.7988 73.5488L52.3887 70.8594C53.8809 68.3203 57.3145 65.625 62.4707 65.625C65.6816 65.625 68.6738 66.5566 70.8945 68.2461C73.5098 70.2383 74.9492 73.1836 74.9492 76.543C74.958 77.9357 74.6909 79.3164 74.1633 80.6053C73.6356 81.8943 72.8579 83.066 71.875 84.0527C71.6504 84.2832 71.4141 84.4981 71.1738 84.707C71.7606 85.1309 72.3107 85.6032 72.8184 86.1191C74.8809 88.2285 75.9707 91.1484 75.9707 94.5664C75.9707 98.0938 74.4844 101.207 71.7871 103.34C69.4102 105.217 66.1719 106.25 62.666 106.25C57.2227 106.25 53.1973 102.703 51.4043 99.668L49.8164 96.9766L55.1992 93.7988L56.793 96.4844C57.0039 96.8438 58.9707 100 62.6719 100C65.9258 100 69.7266 98.5762 69.7266 94.5664C69.7266 93.3457 69.4883 91.6465 68.3594 90.4883ZM114.062 37.5H103.141V31.25H93.7656V37.5H56.2344V31.25H46.8594V37.5H35.9375C35.3243 37.4948 34.7161 37.6111 34.148 37.842C33.5799 38.0729 33.0631 38.414 32.6274 38.8455C32.1916 39.2771 31.8456 39.7906 31.6092 40.3564C31.3728 40.9223 31.2508 41.5293 31.25 42.1426V53.125H118.75V42.1426C118.749 41.5293 118.627 40.9223 118.391 40.3564C118.154 39.7906 117.808 39.2771 117.373 38.8455C116.937 38.414 116.42 38.0729 115.852 37.842C115.284 37.6111 114.676 37.4948 114.062 37.5Z" fill="black"/>
</svg>
