<svg width="150" height="150" viewBox="0 0 150 150" fill="none" xmlns="http://www.w3.org/2000/svg">
<path d="M114.062 34.375H35.9375C34.6943 34.375 33.502 34.8689 32.6229 35.7479C31.7439 36.627 31.25 37.8193 31.25 39.0625V95.3125C31.25 96.5557 31.7439 97.748 32.6229 98.6271C33.502 99.5061 34.6943 100 35.9375 100H50V115.625L72.9961 100H114.062C115.306 100 116.498 99.5061 117.377 98.6271C118.256 97.748 118.75 96.5557 118.75 95.3125V39.0625C118.75 37.8193 118.256 36.627 117.377 35.7479C116.498 34.8689 115.306 34.375 114.062 34.375ZM56.25 73.4375C55.0139 73.4375 53.8055 73.0709 52.7777 72.3842C51.7499 71.6974 50.9488 70.7213 50.4758 69.5793C50.0027 68.4372 49.8789 67.1806 50.1201 65.9682C50.3612 64.7558 50.9565 63.6422 51.8306 62.7681C52.7047 61.894 53.8183 61.2987 55.0307 61.0576C56.2431 60.8164 57.4997 60.9402 58.6418 61.4133C59.7838 61.8863 60.7599 62.6874 61.4467 63.7152C62.1334 64.743 62.5 65.9514 62.5 67.1875C62.5 68.8451 61.8415 70.4348 60.6694 71.6069C59.4973 72.779 57.9076 73.4375 56.25 73.4375ZM75 73.4375C73.7639 73.4375 72.5555 73.0709 71.5277 72.3842C70.4999 71.6974 69.6988 70.7213 69.2258 69.5793C68.7527 68.4372 68.6289 67.1806 68.8701 65.9682C69.1112 64.7558 69.7065 63.6422 70.5806 62.7681C71.4547 61.894 72.5683 61.2987 73.7807 61.0576C74.9931 60.8164 76.2497 60.9402 77.3918 61.4133C78.5338 61.8863 79.5099 62.6874 80.1967 63.7152C80.8834 64.743 81.25 65.9514 81.25 67.1875C81.25 68.8451 80.5915 70.4348 79.4194 71.6069C78.2473 72.779 76.6576 73.4375 75 73.4375V73.4375ZM93.75 73.4375C92.5139 73.4375 91.3055 73.0709 90.2777 72.3842C89.2499 71.6974 88.4488 70.7213 87.9758 69.5793C87.5027 68.4372 87.3789 67.1806 87.6201 65.9682C87.8612 64.7558 88.4565 63.6422 89.3306 62.7681C90.2047 61.894 91.3183 61.2987 92.5307 61.0576C93.7431 60.8164 94.9997 60.9402 96.1418 61.4133C97.2838 61.8863 98.2599 62.6874 98.9467 63.7152C99.6334 64.743 100 65.9514 100 67.1875C100 68.8451 99.3415 70.4348 98.1694 71.6069C96.9973 72.779 95.4076 73.4375 93.75 73.4375Z" fill="black"/>
</svg>
