<svg width="150" height="150" viewBox="0 0 150 150" fill="none" xmlns="http://www.w3.org/2000/svg">
<path fill-rule="evenodd" clip-rule="evenodd" d="M111.336 32.4796C110.311 32.9247 109.841 34.1194 110.288 35.1481C110.735 36.1767 111.928 36.6497 112.953 36.2046C113.978 35.7595 114.447 34.5648 114.001 33.5362C113.554 32.5076 112.361 32.0345 111.336 32.4796ZM102.862 38.3718C100.63 33.2286 102.975 27.2552 108.101 25.0296C113.228 22.8041 119.194 25.1693 121.426 30.3125C123.659 35.4556 121.314 41.4291 116.187 43.6546C114.99 44.1743 113.747 44.4437 112.517 44.4858L101.497 72.5501C102.367 73.4251 103.092 74.4747 103.614 75.6757C105.846 80.8189 103.501 86.7924 98.3745 89.0179C93.2482 91.2434 87.2825 88.8782 85.0497 83.735C84.5282 82.534 84.2565 81.2876 84.2115 80.0543L64.1784 72.1119C63.3075 72.9821 62.262 73.7062 61.0649 74.2259C59.8678 74.7456 58.6249 75.015 57.3945 75.0571L44.2788 108.458C45.1491 109.333 45.8741 110.383 46.3956 111.584C48.6284 116.727 46.2828 122.7 41.1565 124.926C36.0302 127.151 30.0645 124.786 27.8316 119.643C25.5988 114.5 27.9444 108.527 33.0707 106.301C34.2678 105.781 35.5107 105.512 36.7411 105.47L49.8568 72.0686C48.9865 71.1937 48.2615 70.1441 47.7401 68.9431C45.5072 63.7999 47.8528 57.8264 52.9791 55.6009C58.1054 53.3754 64.0711 55.7406 66.304 60.8838C66.8254 62.0848 67.0971 63.3311 67.1421 64.5645L87.1752 72.5069C88.0461 71.6367 89.0916 70.9126 90.2887 70.3929C91.4858 69.8732 92.7287 69.6038 93.9591 69.5617L104.979 41.4974C104.109 40.6224 103.384 39.5728 102.862 38.3718ZM56.2134 63.0509C55.1882 63.496 54.7191 64.6907 55.1656 65.7193C55.6122 66.748 56.8053 67.221 57.8306 66.7759C58.8559 66.3308 59.325 65.1361 58.8784 64.1075C58.4318 63.0789 57.2387 62.6058 56.2134 63.0509ZM93.523 77.8429C92.4978 78.288 92.0286 79.4827 92.4752 80.5113C92.9218 81.5399 94.1149 82.013 95.1402 81.5679C96.1654 81.1228 96.6346 79.9281 96.188 78.8994C95.7414 77.8708 94.5483 77.3978 93.523 77.8429ZM36.305 113.751C35.2798 114.196 34.8106 115.391 35.2572 116.419C35.7038 117.448 36.8969 117.921 37.9222 117.476C38.9474 117.031 39.4166 115.836 38.97 114.808C38.5234 113.779 37.3303 113.306 36.305 113.751Z" fill="black"/>
</svg>
