<svg width="150" height="150" viewBox="0 0 150 150" fill="none" xmlns="http://www.w3.org/2000/svg">
<path d="M34.4082 47.1367C33.4465 47.6841 32.6474 48.477 32.0925 49.4344C31.5376 50.3918 31.2469 51.4794 31.25 52.5859V110.547C31.2465 111.627 31.5229 112.689 32.0522 113.63C32.5815 114.572 33.3456 115.36 34.2702 115.918C35.1947 116.476 36.248 116.785 37.3275 116.815C38.407 116.845 39.4758 116.594 40.4297 116.088C40.5137 116.043 40.5957 115.996 40.6758 115.943L57.1094 105.191C57.3276 105.049 57.5068 104.854 57.6306 104.625C57.7544 104.396 57.819 104.139 57.8184 103.879V34.0723C57.8192 33.7876 57.7422 33.5082 57.5958 33.2641C57.4494 33.02 57.239 32.8206 56.9875 32.6873C56.7361 32.554 56.4529 32.4919 56.1687 32.5078C55.8845 32.5237 55.6101 32.6169 55.375 32.7773L34.4082 47.1367ZM66.4766 32.6777C66.241 32.5246 65.9685 32.4378 65.6877 32.4266C65.4069 32.4153 65.1283 32.4799 64.8812 32.6137C64.6341 32.7474 64.4277 32.9453 64.2836 33.1866C64.1395 33.4278 64.0631 33.7034 64.0625 33.9844V103.82C64.0619 104.081 64.1264 104.337 64.2502 104.567C64.3741 104.796 64.5533 104.99 64.7715 105.133L83.5215 117.324C83.7572 117.478 84.0301 117.565 84.3114 117.577C84.5926 117.588 84.8717 117.523 85.1191 117.389C85.3666 117.255 85.5733 117.057 85.7174 116.815C85.8614 116.573 85.9375 116.297 85.9375 116.016V46.2246C85.9382 45.9636 85.8735 45.7065 85.7494 45.4769C85.6252 45.2473 85.4454 45.0524 85.2266 44.9102L66.4766 32.6777ZM115.729 34.0762C114.807 33.5125 113.755 33.2 112.675 33.1698C111.596 33.1397 110.527 33.3929 109.576 33.9043C109.492 33.9475 109.41 33.9958 109.332 34.0488L92.8965 44.791C92.6782 44.9333 92.4991 45.128 92.3752 45.3572C92.2514 45.5864 92.1869 45.843 92.1875 46.1035V115.92C92.1864 116.205 92.2633 116.485 92.4099 116.729C92.5564 116.973 92.7669 117.173 93.0188 117.306C93.2706 117.44 93.5541 117.502 93.8386 117.486C94.123 117.469 94.3977 117.376 94.6328 117.215L115.545 102.867C116.518 102.324 117.329 101.531 117.892 100.569C118.456 99.6077 118.752 98.513 118.75 97.3984V39.5859C118.763 38.4852 118.492 37.3998 117.962 36.4346C117.433 35.4694 116.664 34.6571 115.729 34.0762Z" fill="black"/>
</svg>
