<svg width="150" height="150" viewBox="0 0 150 150" fill="none" xmlns="http://www.w3.org/2000/svg">
<path fill-rule="evenodd" clip-rule="evenodd" d="M51.5 32.75C53.3565 32.75 55.137 33.4875 56.4498 34.8003L72.1164 50.4669C74.8501 53.2006 74.8501 57.6327 72.1164 60.3664C69.3828 63.1001 64.9506 63.1001 62.2169 60.3664L58.5 56.6495V110.25C58.5 114.116 55.366 117.25 51.5 117.25C47.634 117.25 44.5 114.116 44.5 110.25V56.6495L40.7831 60.3664C38.0494 63.1001 33.6173 63.1001 30.8836 60.3664C28.1499 57.6327 28.1499 53.2006 30.8836 50.4669L46.5503 34.8003C47.863 33.4875 49.6435 32.75 51.5 32.75ZM98.5 32.75C102.366 32.75 105.5 35.884 105.5 39.75V93.3505L109.217 89.6336C111.951 86.8999 116.383 86.8999 119.116 89.6336C121.85 92.3673 121.85 96.7994 119.116 99.5331L103.45 115.2C100.716 117.933 96.2839 117.933 93.5503 115.2L77.8836 99.5331C75.1499 96.7994 75.1499 92.3673 77.8836 89.6336C80.6173 86.8999 85.0494 86.8999 87.7831 89.6336L91.5 93.3505V39.75C91.5 35.884 94.634 32.75 98.5 32.75Z" fill="black"/>
</svg>
