<svg width="150" height="150" viewBox="0 0 150 150" fill="none" xmlns="http://www.w3.org/2000/svg">
<path d="M37.6735 94.4766C37.0703 94.4768 36.4799 94.3025 35.9735 93.9747C35.4672 93.6468 35.0665 93.1794 34.82 92.6289C31.8365 85.9658 30.5679 78.6619 31.1298 71.383C31.6916 64.1041 34.0661 57.0815 38.0367 50.9551C42.0074 44.8288 47.448 39.7934 53.8628 36.308C60.2777 32.8225 67.4628 30.9978 74.7633 31C75.5921 31 76.387 31.3292 76.9731 31.9153C77.5591 32.5013 77.8883 33.2962 77.8883 34.125V74.75C77.8885 75.3534 77.7139 75.944 77.3857 76.4504C77.0574 76.9567 76.5896 77.3572 76.0387 77.6035L38.9489 94.1953C38.5484 94.3782 38.1137 94.4741 37.6735 94.4766Z" fill="black"/>
<path d="M86.0114 38.0664C85.7848 38.0205 85.5509 38.0254 85.3264 38.0808C85.1019 38.1362 84.8926 38.2407 84.7134 38.3868C84.5342 38.5329 84.3897 38.7169 84.2903 38.9257C84.1908 39.1344 84.1389 39.3626 84.1383 39.5938V74.75C84.1368 76.5594 83.6124 78.3298 82.6284 79.8482C81.6443 81.3665 80.2424 82.5682 78.5915 83.3086L44.9059 98.3828C44.6971 98.476 44.5113 98.6139 44.3617 98.7868C44.212 98.9596 44.1021 99.1632 44.0397 99.3832C43.9773 99.6032 43.9639 99.8342 44.0005 100.06C44.0372 100.286 44.1229 100.501 44.2516 100.689C46.8296 104.481 50.0296 107.81 53.7165 110.535C60.7018 115.732 69.1822 118.526 77.8883 118.5C100.289 118.5 118.513 100.275 118.513 77.875C118.513 58.2559 104.533 41.8398 86.0114 38.0664Z" fill="black"/>
</svg>
