<svg width="357" height="357" viewBox="0 0 357 357" fill="none" xmlns="http://www.w3.org/2000/svg">
<path d="M192 248.879L256.72 213L313.447 315.328L270.421 314.026L248.727 351.207L192 248.879Z" fill="#1C2149"/>
<path d="M192 248.879L224.36 230.939L270.421 314.026L248.727 351.207L192 248.879Z" fill="#5A5A5A" fill-opacity="0.48"/>
<path d="M167.447 248.879L102.727 213L46 315.328L89.0267 314.026L110.72 351.207L167.447 248.879Z" fill="#3A3C51"/>
<path d="M167.447 248.879L135.087 230.939L89.0267 314.026L110.72 351.207L167.447 248.879Z" fill="#1C2149"/>
<g filter="url(#filter0_d_1093_1807)">
<path fill-rule="evenodd" clip-rule="evenodd" d="M105.222 19C102.461 19 100.245 21.2466 100.009 23.998C97.5114 53.2075 73.3158 76.4849 42.9996 78.8091C40.2463 79.0202 38 81.2386 38 84V177.5C45.8748 256.1 73.1326 292.061 177.012 335.163C178.283 335.69 179.779 335.667 181.032 335.098C280.934 289.8 310.914 255.01 318 177.5V84C318 81.2386 315.754 79.0202 313 78.8091C282.684 76.4849 258.489 53.2075 255.991 23.998C255.755 21.2466 253.539 19 250.778 19H105.222Z" fill="#00ACD1"/>
<path fill-rule="evenodd" clip-rule="evenodd" d="M105.222 19C102.461 19 100.245 21.2466 100.009 23.998C97.5114 53.2075 73.3158 76.4849 42.9996 78.8091C40.2463 79.0202 38 81.2386 38 84V177.5C45.8748 256.1 73.1326 292.061 177.012 335.163C178.283 335.69 179.779 335.667 181.032 335.098C280.934 289.8 310.914 255.01 318 177.5V84C318 81.2386 315.754 79.0202 313 78.8091C282.684 76.4849 258.489 53.2075 255.991 23.998C255.755 21.2466 253.539 19 250.778 19H105.222Z" fill="url(#paint0_linear_1093_1807)"/>
</g>
<path fill-rule="evenodd" clip-rule="evenodd" d="M117.23 49.0978C114.554 75.4701 92.8102 96.4375 65.4611 99.0174C65.2661 99.0358 65.1082 99.1218 65.0185 99.2109C64.9781 99.2509 64.9649 99.2784 64.9627 99.2833C64.9625 99.2838 64.963 99.2795 64.963 99.2841V177.22C68.2467 209.756 75.4702 232.708 91.9777 251.982C108.656 271.455 135.289 287.744 178.753 305.815C178.759 305.816 178.769 305.817 178.781 305.817C178.793 305.816 178.802 305.815 178.808 305.814C220.652 286.809 247.095 270.302 263.895 250.893C280.494 231.715 288.089 209.212 291.037 177.241V99.2841C291.037 99.2795 291.038 99.2838 291.037 99.2833C291.035 99.2784 291.022 99.2509 290.982 99.2109C290.892 99.1218 290.734 99.0358 290.539 99.0174C263.19 96.4375 241.446 75.47 238.77 49.0978C238.751 48.9097 238.662 48.7574 238.57 48.6709C238.528 48.632 238.5 48.6192 238.495 48.6171C238.494 48.6169 238.499 48.6174 238.494 48.6174H117.506C117.501 48.6174 117.506 48.6169 117.505 48.6171C117.5 48.6192 117.472 48.632 117.43 48.6709C117.338 48.7574 117.249 48.9097 117.23 49.0978ZM296.222 177.462C290.249 242.799 265.011 272.19 181.004 310.343C179.67 310.949 178.068 310.975 176.713 310.411C89.3661 274.098 66.4162 243.721 59.7778 177.462V99.2841C59.7778 96.5227 62.1062 94.31 64.9563 94.0411C89.8408 91.6937 109.635 72.6067 112.069 48.6109C112.348 45.8626 114.643 43.6174 117.506 43.6174H238.494C241.358 43.6174 243.652 45.8626 243.931 48.6109C246.365 72.6067 266.159 91.6937 291.044 94.0411C293.894 94.31 296.222 96.5227 296.222 99.2841V177.462Z" fill="#C9F8FF" fill-opacity="0.37"/>
<circle cx="259" cy="75" r="10" fill="white" fill-opacity="0.31" style="mix-blend-mode:lighten"/>
<circle cx="127" cy="48" r="5" fill="white" fill-opacity="0.31" style="mix-blend-mode:lighten"/>
<path d="M288.029 100.933C288.279 99.9189 289.721 99.9189 289.971 100.933L291.429 106.84C291.518 107.2 291.8 107.482 292.16 107.571L298.067 109.029C299.081 109.279 299.081 110.721 298.067 110.971L292.16 112.429C291.8 112.518 291.518 112.8 291.429 113.16L289.971 119.067C289.721 120.081 288.279 120.081 288.029 119.067L286.571 113.16C286.482 112.8 286.2 112.518 285.84 112.429L279.933 110.971C278.919 110.721 278.919 109.279 279.933 109.029L285.84 107.571C286.2 107.482 286.482 107.2 286.571 106.84L288.029 100.933Z" fill="white" fill-opacity="0.87"/>
<path d="M66.0291 176.933C66.2794 175.919 67.7206 175.919 67.9709 176.933L69.6271 183.642C69.7161 184.002 69.9977 184.284 70.3583 184.373L77.0673 186.029C78.0811 186.279 78.0811 187.721 77.0673 187.971L70.3583 189.627C69.9977 189.716 69.7161 189.998 69.6271 190.358L67.9709 197.067C67.7206 198.081 66.2794 198.081 66.0291 197.067L64.3729 190.358C64.2839 189.998 64.0023 189.716 63.6417 189.627L56.9327 187.971C55.9189 187.721 55.9189 186.279 56.9327 186.029L63.6417 184.373C64.0023 184.284 64.2839 184.002 64.3729 183.642L66.0291 176.933Z" fill="white" fill-opacity="0.87"/>
<g filter="url(#filter1_i_1093_1807)">
<path d="M187.571 161.722V82L239 176.6L204.714 228.2H153.286L119 176.6L170.429 82V161.722C167.16 163.615 164.606 166.537 163.162 170.035C161.718 173.534 161.465 177.412 162.441 181.069C163.418 184.727 165.57 187.958 168.564 190.263C171.558 192.568 175.226 193.818 179 193.818C182.774 193.818 186.442 192.568 189.436 190.263C192.43 187.958 194.582 184.727 195.559 181.069C196.535 177.412 196.282 173.534 194.838 170.035C193.394 166.537 190.84 163.615 187.571 161.722ZM144.714 236.8H213.286V254H144.714V236.8Z" fill="#FFF8F8"/>
</g>
<defs>
<filter id="filter0_d_1093_1807" x="25" y="12" width="306" height="342.542" filterUnits="userSpaceOnUse" color-interpolation-filters="sRGB">
<feFlood flood-opacity="0" result="BackgroundImageFix"/>
<feColorMatrix in="SourceAlpha" type="matrix" values="0 0 0 0 0 0 0 0 0 0 0 0 0 0 0 0 0 0 127 0" result="hardAlpha"/>
<feOffset dy="6"/>
<feGaussianBlur stdDeviation="6.5"/>
<feColorMatrix type="matrix" values="0 0 0 0 0.0947222 0 0 0 0 0.140533 0 0 0 0 0.258333 0 0 0 0.15 0"/>
<feBlend mode="normal" in2="BackgroundImageFix" result="effect1_dropShadow_1093_1807"/>
<feBlend mode="normal" in="SourceGraphic" in2="effect1_dropShadow_1093_1807" result="shape"/>
</filter>
<filter id="filter1_i_1093_1807" x="119" y="82" width="120" height="176" filterUnits="userSpaceOnUse" color-interpolation-filters="sRGB">
<feFlood flood-opacity="0" result="BackgroundImageFix"/>
<feBlend mode="normal" in="SourceGraphic" in2="BackgroundImageFix" result="shape"/>
<feColorMatrix in="SourceAlpha" type="matrix" values="0 0 0 0 0 0 0 0 0 0 0 0 0 0 0 0 0 0 127 0" result="hardAlpha"/>
<feOffset dy="4"/>
<feGaussianBlur stdDeviation="3"/>
<feComposite in2="hardAlpha" operator="arithmetic" k2="-1" k3="1"/>
<feColorMatrix type="matrix" values="0 0 0 0 0 0 0 0 0 0 0 0 0 0 0 0 0 0 0.1 0"/>
<feBlend mode="normal" in2="shape" result="effect1_innerShadow_1093_1807"/>
</filter>
<linearGradient id="paint0_linear_1093_1807" x1="297.259" y1="25.9899" x2="72.2844" y2="343.665" gradientUnits="userSpaceOnUse">
<stop stop-color="#00FF94" stop-opacity="0.92"/>
<stop offset="1" stop-color="#00FF0A" stop-opacity="0"/>
</linearGradient>
</defs>
</svg>
