<svg width="357" height="357" viewBox="0 0 357 357" fill="none" xmlns="http://www.w3.org/2000/svg">
<mask id="mask0_934_3492" style="mask-type:alpha" maskUnits="userSpaceOnUse" x="18" y="18" width="320" height="320">
<circle cx="178" cy="178" r="160" fill="url(#paint0_linear_934_3492)"/>
</mask>
<g mask="url(#mask0_934_3492)">
<circle cx="178" cy="178" r="160" fill="url(#paint1_linear_934_3492)"/>
<circle cx="178" cy="178" r="152" fill="url(#paint2_radial_934_3492)" fill-opacity="0.2" style="mix-blend-mode:screen"/>
<circle cx="178" cy="178" r="152" fill="url(#paint3_radial_934_3492)" fill-opacity="0.2" style="mix-blend-mode:screen"/>
<path d="M189 277.879L253.72 242L310.447 344.328L267.421 343.026L245.727 380.207L189 277.879Z" fill="#1C2149"/>
<path d="M189 277.879L221.36 259.939L267.421 343.026L245.727 380.207L189 277.879Z" fill="#5A5A5A" fill-opacity="0.48"/>
<path d="M178.447 281.879L113.727 246L57 348.328L100.027 347.026L121.72 384.207L178.447 281.879Z" fill="#3A3C51"/>
<path d="M178.447 281.879L146.087 263.939L100.027 347.026L121.72 384.207L178.447 281.879Z" fill="#1C2149"/>
<path d="M65.0291 238.933C65.2794 237.919 66.7206 237.919 66.9709 238.933L68.8251 246.444C68.9141 246.804 69.1957 247.086 69.5563 247.175L77.0673 249.029C78.0811 249.279 78.0811 250.721 77.0673 250.971L69.5563 252.825C69.1957 252.914 68.9141 253.196 68.8251 253.556L66.9709 261.067C66.7206 262.081 65.2794 262.081 65.0291 261.067L63.1749 253.556C63.0859 253.196 62.8043 252.914 62.4437 252.825L54.9327 250.971C53.9189 250.721 53.9189 249.279 54.9327 249.029L62.4437 247.175C62.8043 247.086 63.0859 246.804 63.1749 246.444L65.0291 238.933Z" fill="white" fill-opacity="0.87"/>
<path d="M303.029 131.933C303.279 130.919 304.721 130.919 304.971 131.933L306.825 139.444C306.914 139.804 307.196 140.086 307.556 140.175L315.067 142.029C316.081 142.279 316.081 143.721 315.067 143.971L307.556 145.825C307.196 145.914 306.914 146.196 306.825 146.556L304.971 154.067C304.721 155.081 303.279 155.081 303.029 154.067L301.175 146.556C301.086 146.196 300.804 145.914 300.444 145.825L292.933 143.971C291.919 143.721 291.919 142.279 292.933 142.029L300.444 140.175C300.804 140.086 301.086 139.804 301.175 139.444L303.029 131.933Z" fill="white" fill-opacity="0.47"/>
<path d="M50.0291 203.933C50.2794 202.919 51.7206 202.919 51.9709 203.933L54.815 215.454C54.9041 215.814 55.1856 216.096 55.5462 216.185L67.0673 219.029C68.0811 219.279 68.0811 220.721 67.0673 220.971L55.5462 223.815C55.1856 223.904 54.9041 224.186 54.815 224.546L51.9709 236.067C51.7206 237.081 50.2794 237.081 50.0291 236.067L47.185 224.546C47.0959 224.186 46.8144 223.904 46.4538 223.815L34.9327 220.971C33.9189 220.721 33.9189 219.279 34.9327 219.029L46.4538 216.185C46.8144 216.096 47.0959 215.814 47.185 215.454L50.0291 203.933Z" fill="white" fill-opacity="0.87"/>
<path fill-rule="evenodd" clip-rule="evenodd" d="M180.365 68.4222C180.002 64.9934 175.011 64.9934 174.648 68.4222C174.303 71.6746 169.661 71.9178 168.978 68.7193C168.259 65.3473 163.296 65.8689 163.293 69.3169C163.29 72.5875 158.698 73.3147 157.685 70.205C156.617 66.9267 151.736 67.9643 152.093 71.3937C152.432 74.6466 147.942 75.8498 146.609 72.8631C145.204 69.7144 140.458 71.2565 141.172 74.6297C141.849 77.8294 137.509 79.4954 135.872 76.6644C134.145 73.6798 129.586 75.7095 130.649 78.9897C131.657 82.101 127.515 84.2115 125.59 81.5671C123.561 78.7794 119.24 81.2745 120.639 84.4256C121.967 87.4146 118.068 89.9464 115.878 87.5178C113.568 84.9574 109.531 87.8906 111.253 90.8781C112.886 93.7119 109.273 96.6374 106.84 94.4511C104.276 92.1461 100.568 95.4853 102.592 98.2765C104.512 100.924 101.225 104.211 98.5774 102.291C95.7862 100.267 92.447 103.975 94.752 106.54C96.9383 108.972 94.0128 112.585 91.179 110.952C88.1915 109.23 85.2583 113.268 87.8187 115.577C90.2473 117.767 87.7155 121.666 84.7265 120.338C81.5754 118.939 79.0803 123.26 81.868 125.289C84.5124 127.214 82.4019 131.356 79.2906 130.348C76.0104 129.285 73.9807 133.844 76.9653 135.571C79.7963 137.208 78.1303 141.548 74.9306 140.871C71.5574 140.157 70.0153 144.903 73.164 146.308C76.1507 147.641 74.9475 152.131 71.6946 151.792C68.2652 151.435 67.2276 156.316 70.5059 157.384C73.6156 158.398 72.8884 162.989 69.6178 162.992C66.1698 162.995 65.6482 167.958 69.0202 168.677C72.2187 169.36 71.9755 174.002 68.7231 174.347C65.2943 174.71 65.2943 179.701 68.7231 180.064C71.9755 180.409 72.2187 185.051 69.0202 185.734C65.6482 186.453 66.1698 191.416 69.6178 191.419C72.8884 191.422 73.6156 196.014 70.5059 197.027C67.2276 198.095 68.2652 202.976 71.6946 202.619C74.9475 202.28 76.1507 206.77 73.164 208.103C70.0153 209.508 71.5574 214.254 74.9306 213.54C78.1303 212.863 79.7963 217.203 76.9653 218.84C73.9807 220.567 76.0104 225.126 79.2906 224.063C82.4019 223.055 84.5124 227.197 81.868 229.122C79.0803 231.151 81.5754 235.473 84.7265 234.073C87.7155 232.745 90.2473 236.644 87.8187 238.834C85.2583 241.144 88.1915 245.181 91.179 243.459C94.0128 241.827 96.9383 245.439 94.752 247.872C92.447 250.436 95.7862 254.144 98.5774 252.12C101.225 250.2 104.512 253.487 102.592 256.135C100.568 258.926 104.276 262.265 106.84 259.96C109.273 257.774 112.886 260.699 111.253 263.533C109.531 266.521 113.568 269.454 115.878 266.893C118.068 264.465 121.967 266.997 120.639 269.986C119.24 273.137 123.561 275.632 125.59 272.844C127.515 270.2 131.657 272.31 130.649 275.422C129.586 278.702 134.145 280.731 135.872 277.747C137.509 274.916 141.849 276.582 141.172 279.781C140.458 283.155 145.204 284.697 146.609 281.548C147.942 278.561 152.432 279.765 152.093 283.018C151.736 286.447 156.617 287.484 157.685 284.206C158.698 281.096 163.29 281.824 163.293 285.094C163.296 288.542 168.259 289.064 168.978 285.692C169.661 282.493 174.303 282.737 174.648 285.989C175.011 289.418 180.002 289.418 180.365 285.989C180.71 282.737 185.352 282.493 186.035 285.692C186.754 289.064 191.717 288.542 191.72 285.094C191.723 281.824 196.315 281.096 197.328 284.206C198.396 287.484 203.277 286.447 202.92 283.018C202.581 279.765 207.071 278.561 208.404 281.548C209.809 284.697 214.555 283.155 213.841 279.781C213.164 276.582 217.504 274.916 219.141 277.747C220.868 280.731 225.427 278.702 224.364 275.422C223.356 272.31 227.498 270.2 229.423 272.844C231.452 275.632 235.773 273.137 234.374 269.986C233.046 266.997 236.945 264.465 239.135 266.893C241.445 269.454 245.482 266.521 243.76 263.533C242.127 260.699 245.74 257.774 248.173 259.96C250.737 262.265 254.445 258.926 252.421 256.135C250.501 253.487 253.788 250.2 256.436 252.12C259.227 254.144 262.566 250.436 260.261 247.872C258.075 245.439 261 241.827 263.834 243.459C266.821 245.181 269.755 241.144 267.194 238.834C264.766 236.644 267.297 232.745 270.286 234.073C273.438 235.473 275.933 231.151 273.145 229.122C270.501 227.197 272.611 223.055 275.722 224.063C279.003 225.126 281.032 220.567 278.048 218.84C275.217 217.203 276.883 212.863 280.082 213.54C283.456 214.254 284.998 209.508 281.849 208.103C278.862 206.77 280.065 202.28 283.318 202.619C286.748 202.976 287.785 198.095 284.507 197.027C281.397 196.014 282.125 191.422 285.395 191.419C288.843 191.416 289.365 186.453 285.993 185.734C282.794 185.051 283.038 180.409 286.29 180.064C289.719 179.701 289.719 174.71 286.29 174.347C283.038 174.002 282.794 169.36 285.993 168.677C289.365 167.958 288.843 162.995 285.395 162.992C282.125 162.989 281.397 158.398 284.507 157.384C287.785 156.316 286.748 151.435 283.318 151.792C280.065 152.131 278.862 147.641 281.849 146.308C284.998 144.903 283.456 140.157 280.082 140.871C276.883 141.548 275.217 137.208 278.048 135.571C281.032 133.844 279.003 129.285 275.722 130.348C272.611 131.356 270.501 127.214 273.145 125.289C275.933 123.26 273.438 118.939 270.286 120.338C267.297 121.666 264.766 117.767 267.194 115.577C269.755 113.268 266.821 109.23 263.834 110.952C261 112.585 258.075 108.972 260.261 106.54C262.566 103.975 259.227 100.267 256.436 102.291C253.788 104.211 250.501 100.924 252.421 98.2765C254.445 95.4853 250.737 92.1461 248.173 94.4511C245.74 96.6374 242.127 93.7119 243.76 90.8781C245.482 87.8906 241.445 84.9574 239.135 87.5178C236.945 89.9464 233.046 87.4146 234.374 84.4256C235.773 81.2745 231.452 78.7794 229.423 81.5671C227.498 84.2115 223.356 82.101 224.364 78.9897C225.427 75.7095 220.868 73.6798 219.141 76.6643C217.504 79.4954 213.164 77.8294 213.841 74.6297C214.555 71.2565 209.809 69.7144 208.404 72.8631C207.071 75.8498 202.581 74.6466 202.92 71.3937C203.277 67.9643 198.396 66.9267 197.328 70.205C196.315 73.3147 191.723 72.5875 191.72 69.3169C191.717 65.8689 186.754 65.3473 186.035 68.7193C185.352 71.9178 180.71 71.6746 180.365 68.4222ZM263.191 177.206C263.191 224.528 224.829 262.89 177.506 262.89C130.184 262.89 91.8221 224.528 91.8221 177.206C91.8221 129.883 130.184 91.5212 177.506 91.5212C224.829 91.5212 263.191 129.883 263.191 177.206ZM250.95 177.206C250.95 217.767 218.068 250.649 177.506 250.649C136.945 250.649 104.063 217.767 104.063 177.206C104.063 136.644 136.945 103.762 177.506 103.762C218.068 103.762 250.95 136.644 250.95 177.206Z" fill="white"/>
<path d="M141.094 165.32L133.094 167.8C132.294 167.267 131.494 166.52 130.694 165.56C129.894 164.6 129.494 163.267 129.494 161.56C129.494 158.36 131.44 156.12 135.334 154.84L144.294 151.8H147.254C149.547 151.8 151.36 152.467 152.694 153.8C154.027 155.133 154.694 156.947 154.694 159.24V200.92C154.107 201.027 153.227 201.16 152.054 201.32C150.934 201.533 149.787 201.64 148.614 201.64C147.44 201.64 146.374 201.56 145.414 201.4C144.507 201.24 143.734 200.92 143.094 200.44C142.454 199.96 141.947 199.32 141.574 198.52C141.254 197.667 141.094 196.573 141.094 195.24V165.32ZM195.46 189.4C195.46 193.453 193.94 196.627 190.9 198.92C187.86 201.213 183.38 202.36 177.46 202.36C175.22 202.36 173.14 202.2 171.22 201.88C169.3 201.56 167.647 201.08 166.26 200.44C164.927 199.747 163.86 198.893 163.06 197.88C162.313 196.867 161.94 195.667 161.94 194.28C161.94 193 162.207 191.933 162.74 191.08C163.273 190.173 163.913 189.427 164.66 188.84C166.207 189.693 167.967 190.467 169.94 191.16C171.967 191.8 174.287 192.12 176.9 192.12C178.553 192.12 179.807 191.88 180.66 191.4C181.567 190.92 182.02 190.28 182.02 189.48C182.02 188.733 181.7 188.147 181.06 187.72C180.42 187.293 179.353 186.947 177.86 186.68L175.46 186.2C170.82 185.293 167.353 183.88 165.06 181.96C162.82 179.987 161.7 177.187 161.7 173.56C161.7 171.587 162.127 169.8 162.98 168.2C163.833 166.6 165.033 165.267 166.58 164.2C168.127 163.133 169.967 162.307 172.1 161.72C174.287 161.133 176.687 160.84 179.3 160.84C181.273 160.84 183.113 161 184.82 161.32C186.58 161.587 188.1 162.013 189.38 162.6C190.66 163.187 191.673 163.96 192.42 164.92C193.167 165.827 193.54 166.92 193.54 168.2C193.54 169.427 193.3 170.493 192.82 171.4C192.393 172.253 191.833 172.973 191.14 173.56C190.713 173.293 190.073 173.027 189.22 172.76C188.367 172.44 187.433 172.173 186.42 171.96C185.407 171.693 184.367 171.48 183.3 171.32C182.287 171.16 181.353 171.08 180.5 171.08C178.74 171.08 177.38 171.293 176.42 171.72C175.46 172.093 174.98 172.707 174.98 173.56C174.98 174.147 175.247 174.627 175.78 175C176.313 175.373 177.327 175.72 178.82 176.04L181.3 176.6C186.42 177.773 190.047 179.4 192.18 181.48C194.367 183.507 195.46 186.147 195.46 189.4ZM214.035 187.64C214.035 189.027 214.462 190.013 215.315 190.6C216.222 191.187 217.475 191.48 219.075 191.48C219.875 191.48 220.702 191.427 221.555 191.32C222.408 191.16 223.155 190.973 223.795 190.76C224.275 191.347 224.675 192.013 224.995 192.76C225.368 193.453 225.555 194.307 225.555 195.32C225.555 197.347 224.782 199 223.235 200.28C221.742 201.56 219.075 202.2 215.235 202.2C210.542 202.2 206.915 201.133 204.355 199C201.848 196.867 200.595 193.4 200.595 188.6V154.36C201.182 154.2 202.008 154.04 203.075 153.88C204.195 153.667 205.368 153.56 206.595 153.56C208.942 153.56 210.755 153.987 212.035 154.84C213.368 155.64 214.035 157.373 214.035 160.04V165.16H224.515C224.835 165.747 225.128 166.493 225.395 167.4C225.715 168.253 225.875 169.213 225.875 170.28C225.875 172.147 225.448 173.507 224.595 174.36C223.795 175.16 222.702 175.56 221.315 175.56H214.035V187.64Z" fill="black"/>
<rect x="-2" y="211" width="359" height="47" fill="black"/>
<path d="M140.8 223.3H151.061C153.438 223.3 155.546 223.744 157.385 224.633C159.224 225.522 160.65 226.782 161.663 228.415C162.676 230.048 163.182 231.959 163.182 234.15C163.182 236.341 162.676 238.252 161.663 239.885C160.65 241.518 159.224 242.778 157.385 243.667C155.546 244.556 153.438 245 151.061 245H140.8V223.3ZM150.813 240.102C152.673 240.102 154.161 239.575 155.277 238.521C156.414 237.467 156.982 236.01 156.982 234.15C156.982 232.29 156.414 230.833 155.277 229.779C154.161 228.725 152.673 228.198 150.813 228.198H146.938V240.102H150.813ZM180.647 240.784H171.471L169.766 245H163.504L173.083 223.3H179.128L188.738 245H182.352L180.647 240.784ZM178.849 236.258L176.059 229.314L173.269 236.258H178.849ZM200.741 237.219V245H194.603V237.126L186.326 223.3H192.805L197.951 231.918L203.097 223.3H209.049L200.741 237.219ZM210.224 223.3H217.23L216.052 237.095H211.371L210.224 223.3ZM213.727 245.279C212.694 245.279 211.846 244.969 211.185 244.349C210.524 243.708 210.193 242.933 210.193 242.024C210.193 241.094 210.524 240.329 211.185 239.73C211.846 239.131 212.694 238.831 213.727 238.831C214.76 238.831 215.597 239.131 216.238 239.73C216.899 240.329 217.23 241.094 217.23 242.024C217.23 242.933 216.899 243.708 216.238 244.349C215.577 244.969 214.74 245.279 213.727 245.279Z" fill="white"/>
</g>
<defs>
<linearGradient id="paint0_linear_934_3492" x1="18" y1="18" x2="338" y2="338" gradientUnits="userSpaceOnUse">
<stop stop-color="#FFA6B7"/>
<stop offset="1" stop-color="#1E2AD2"/>
</linearGradient>
<linearGradient id="paint1_linear_934_3492" x1="18" y1="18" x2="338" y2="338" gradientUnits="userSpaceOnUse">
<stop stop-color="#FF9D6C"/>
<stop offset="1" stop-color="#BB4E75"/>
</linearGradient>
<radialGradient id="paint2_radial_934_3492" cx="0" cy="0" r="1" gradientUnits="userSpaceOnUse" gradientTransform="translate(178 178) rotate(90) scale(152)">
<stop offset="0.828125" stop-color="white" stop-opacity="0"/>
<stop offset="1" stop-color="white" stop-opacity="0.66"/>
</radialGradient>
<radialGradient id="paint3_radial_934_3492" cx="0" cy="0" r="1" gradientUnits="userSpaceOnUse" gradientTransform="translate(178 178) rotate(90) scale(152)">
<stop offset="0.828125" stop-color="white" stop-opacity="0"/>
<stop offset="1" stop-color="white" stop-opacity="0.66"/>
</radialGradient>
</defs>
</svg>
