<svg width="357" height="357" viewBox="0 0 357 357" fill="none" xmlns="http://www.w3.org/2000/svg">
<mask id="mask0_1094_2226" style="mask-type:alpha" maskUnits="userSpaceOnUse" x="18" y="18" width="320" height="320">
<circle cx="178" cy="178" r="160" fill="url(#paint0_linear_1094_2226)"/>
</mask>
<g mask="url(#mask0_1094_2226)">
<circle cx="178" cy="178" r="160" fill="url(#paint1_linear_1094_2226)"/>
<circle cx="179" cy="178" r="152" fill="url(#paint2_radial_1094_2226)" fill-opacity="0.2" style="mix-blend-mode:screen"/>
<circle cx="179" cy="178" r="135" fill="url(#paint3_radial_1094_2226)" fill-opacity="0.2" style="mix-blend-mode:screen"/>
<path d="M102.08 254.396C100.789 253.956 99.6157 253.516 98.5597 253.076C97.5037 252.607 96.5944 252.049 95.8317 251.404C95.0691 250.759 94.4677 249.996 94.0277 249.116C93.6171 248.207 93.4117 247.107 93.4117 245.816C93.4117 243.323 94.3651 241.328 96.2717 239.832C98.2077 238.336 100.906 237.588 104.368 237.588C105.629 237.588 106.802 237.676 107.888 237.852C108.973 238.028 109.897 238.307 110.66 238.688C111.452 239.04 112.068 239.509 112.508 240.096C112.948 240.653 113.168 241.313 113.168 242.076C113.168 242.839 112.992 243.499 112.64 244.056C112.288 244.584 111.862 245.039 111.364 245.42C110.718 245.009 109.853 244.657 108.768 244.364C107.682 244.041 106.494 243.88 105.204 243.88C103.884 243.88 102.916 244.071 102.3 244.452C101.684 244.804 101.376 245.259 101.376 245.816C101.376 246.256 101.566 246.623 101.948 246.916C102.329 247.18 102.901 247.429 103.664 247.664L105.996 248.412C108.753 249.292 110.865 250.421 112.332 251.8C113.828 253.149 114.576 254.997 114.576 257.344C114.576 259.837 113.593 261.861 111.628 263.416C109.662 264.941 106.773 265.704 102.96 265.704C101.61 265.704 100.349 265.587 99.1757 265.352C98.0317 265.147 97.0197 264.839 96.1397 264.428C95.2891 263.988 94.6144 263.46 94.1157 262.844C93.6464 262.199 93.4117 261.465 93.4117 260.644C93.4117 259.793 93.6611 259.075 94.1597 258.488C94.6584 257.872 95.2011 257.403 95.7877 257.08C96.6091 257.725 97.6064 258.283 98.7797 258.752C99.9824 259.221 101.288 259.456 102.696 259.456C104.133 259.456 105.145 259.236 105.732 258.796C106.318 258.356 106.612 257.843 106.612 257.256C106.612 256.669 106.377 256.229 105.908 255.936C105.438 255.613 104.778 255.305 103.928 255.012L102.08 254.396ZM116.076 244.496C115.87 244.173 115.68 243.733 115.504 243.176C115.328 242.619 115.24 242.032 115.24 241.416C115.24 240.272 115.489 239.451 115.988 238.952C116.516 238.453 117.19 238.204 118.012 238.204H137.196C137.401 238.527 137.592 238.967 137.768 239.524C137.944 240.081 138.032 240.668 138.032 241.284C138.032 242.428 137.768 243.249 137.24 243.748C136.741 244.247 136.081 244.496 135.26 244.496H130.376V264.824C130.053 264.912 129.54 265 128.836 265.088C128.161 265.176 127.486 265.22 126.812 265.22C126.137 265.22 125.536 265.161 125.008 265.044C124.509 264.956 124.084 264.78 123.732 264.516C123.38 264.252 123.116 263.885 122.94 263.416C122.764 262.947 122.676 262.331 122.676 261.568V244.496H116.076ZM144.791 239.128C145.29 238.835 146.038 238.556 147.035 238.292C148.062 238.028 149.088 237.896 150.115 237.896C151.582 237.896 152.872 238.116 153.987 238.556C155.131 238.967 155.864 239.627 156.187 240.536C156.715 242.061 157.287 243.836 157.903 245.86C158.519 247.884 159.135 249.981 159.751 252.152C160.367 254.293 160.968 256.42 161.555 258.532C162.142 260.615 162.655 262.463 163.095 264.076C162.743 264.487 162.215 264.809 161.511 265.044C160.807 265.308 159.971 265.44 159.003 265.44C158.299 265.44 157.698 265.381 157.199 265.264C156.73 265.147 156.334 264.971 156.011 264.736C155.718 264.501 155.468 264.193 155.263 263.812C155.087 263.431 154.926 262.991 154.779 262.492L153.987 259.456H146.023C145.788 260.336 145.554 261.245 145.319 262.184C145.084 263.123 144.85 264.032 144.615 264.912C144.204 265.059 143.764 265.176 143.295 265.264C142.855 265.381 142.312 265.44 141.667 265.44C140.171 265.44 139.056 265.191 138.323 264.692C137.619 264.164 137.267 263.445 137.267 262.536C137.267 262.125 137.326 261.715 137.443 261.304C137.56 260.893 137.692 260.409 137.839 259.852C138.044 259.06 138.323 258.077 138.675 256.904C139.056 255.731 139.467 254.469 139.907 253.12C140.347 251.741 140.816 250.333 141.315 248.896C141.814 247.459 142.283 246.109 142.723 244.848C143.163 243.557 143.559 242.413 143.911 241.416C144.292 240.419 144.586 239.656 144.791 239.128ZM150.071 244.804C149.66 246.036 149.191 247.415 148.663 248.94C148.164 250.436 147.71 251.961 147.299 253.516H152.755C152.344 251.932 151.919 250.392 151.479 248.896C151.068 247.371 150.687 246.007 150.335 244.804H150.071ZM173.477 256.376V264.824C173.154 264.912 172.641 265 171.937 265.088C171.262 265.176 170.588 265.22 169.913 265.22C169.238 265.22 168.637 265.161 168.109 265.044C167.61 264.956 167.185 264.78 166.833 264.516C166.51 264.252 166.261 263.885 166.085 263.416C165.909 262.947 165.821 262.331 165.821 261.568V240.844C165.821 240.228 165.982 239.759 166.305 239.436C166.657 239.084 167.126 238.805 167.713 238.6C168.71 238.248 169.869 237.999 171.189 237.852C172.509 237.676 173.917 237.588 175.413 237.588C179.461 237.588 182.512 238.439 184.565 240.14C186.618 241.841 187.645 244.144 187.645 247.048C187.645 248.867 187.176 250.421 186.237 251.712C185.298 253.003 184.184 254 182.893 254.704C183.949 256.141 184.99 257.491 186.017 258.752C187.044 260.013 187.85 261.157 188.437 262.184C188.144 263.211 187.601 264.003 186.809 264.56C186.046 265.088 185.181 265.352 184.213 265.352C183.568 265.352 183.01 265.279 182.541 265.132C182.072 264.985 181.661 264.78 181.309 264.516C180.957 264.252 180.634 263.929 180.341 263.548C180.048 263.167 179.769 262.756 179.505 262.316L175.809 256.376H173.477ZM176.249 250.524C177.364 250.524 178.244 250.245 178.889 249.688C179.534 249.101 179.857 248.251 179.857 247.136C179.857 246.021 179.49 245.185 178.757 244.628C178.053 244.041 176.924 243.748 175.369 243.748C174.929 243.748 174.577 243.763 174.313 243.792C174.049 243.821 173.756 243.865 173.433 243.924V250.524H176.249ZM189.877 244.496C189.672 244.173 189.481 243.733 189.305 243.176C189.129 242.619 189.041 242.032 189.041 241.416C189.041 240.272 189.29 239.451 189.789 238.952C190.317 238.453 190.992 238.204 191.813 238.204H210.997C211.202 238.527 211.393 238.967 211.569 239.524C211.745 240.081 211.833 240.668 211.833 241.284C211.833 242.428 211.569 243.249 211.041 243.748C210.542 244.247 209.882 244.496 209.061 244.496H204.177V264.824C203.854 264.912 203.341 265 202.637 265.088C201.962 265.176 201.288 265.22 200.613 265.22C199.938 265.22 199.337 265.161 198.809 265.044C198.31 264.956 197.885 264.78 197.533 264.516C197.181 264.252 196.917 263.885 196.741 263.416C196.565 262.947 196.477 262.331 196.477 261.568V244.496H189.877ZM214.678 242.428C214.678 241.167 215.045 240.169 215.778 239.436C216.511 238.703 217.509 238.336 218.77 238.336H233.29C233.495 238.659 233.671 239.084 233.818 239.612C233.994 240.14 234.082 240.697 234.082 241.284C234.082 242.399 233.833 243.191 233.334 243.66C232.865 244.129 232.234 244.364 231.442 244.364H222.158V248.456H232.058C232.263 248.779 232.439 249.204 232.586 249.732C232.762 250.231 232.85 250.773 232.85 251.36C232.85 252.475 232.615 253.267 232.146 253.736C231.677 254.205 231.046 254.44 230.254 254.44H222.158V259.06H233.466C233.671 259.383 233.847 259.808 233.994 260.336C234.17 260.864 234.258 261.421 234.258 262.008C234.258 263.123 234.009 263.929 233.51 264.428C233.041 264.897 232.41 265.132 231.618 265.132H218.77C217.509 265.132 216.511 264.765 215.778 264.032C215.045 263.299 214.678 262.301 214.678 261.04V242.428ZM245.56 259.28C245.882 259.339 246.278 259.397 246.748 259.456C247.217 259.485 247.657 259.5 248.068 259.5C249.065 259.5 249.974 259.353 250.796 259.06C251.646 258.767 252.365 258.312 252.952 257.696C253.568 257.08 254.037 256.288 254.36 255.32C254.712 254.323 254.888 253.135 254.888 251.756C254.888 249.116 254.272 247.136 253.04 245.816C251.808 244.467 250.165 243.792 248.112 243.792C247.701 243.792 247.276 243.807 246.836 243.836C246.425 243.865 246 243.909 245.56 243.968V259.28ZM248.024 265.704C247.525 265.704 246.953 265.689 246.308 265.66C245.662 265.631 244.988 265.572 244.284 265.484C243.609 265.396 242.92 265.279 242.216 265.132C241.541 265.015 240.91 264.839 240.324 264.604C238.71 263.988 237.904 262.917 237.904 261.392V240.844C237.904 240.228 238.065 239.759 238.388 239.436C238.74 239.084 239.209 238.805 239.796 238.6C241.057 238.189 242.392 237.925 243.8 237.808C245.208 237.661 246.469 237.588 247.584 237.588C249.872 237.588 251.94 237.867 253.788 238.424C255.665 238.981 257.264 239.847 258.584 241.02C259.933 242.164 260.974 243.616 261.708 245.376C262.441 247.136 262.808 249.219 262.808 251.624C262.808 253.971 262.456 256.024 261.752 257.784C261.048 259.515 260.036 260.981 258.716 262.184C257.425 263.357 255.87 264.237 254.052 264.824C252.233 265.411 250.224 265.704 248.024 265.704Z" fill="white"/>
<g filter="url(#filter0_i_1094_2226)">
<path fill-rule="evenodd" clip-rule="evenodd" d="M253.894 168.878C253.894 155.957 243.447 145.483 230.56 145.483C228.232 145.483 225.983 145.825 223.767 146.447C223.767 146.447 200.031 150.5 194.913 178.436C194.748 178.914 194.593 179.397 194.448 179.885L194.836 178.864C194.813 178.997 194.79 179.13 194.767 179.264C193.111 184.542 192.218 190.159 192.218 195.986C192.218 203.057 193.533 209.82 195.932 216.043C195.827 217.401 188.978 218.469 180.528 218.469C172.079 218.469 165.229 217.401 165.229 216.084C163.189 205.481 153.989 197.639 142.963 197.639C131.847 197.639 122.986 205.686 120.958 216.238C120.958 217.012 116.93 217.641 111.961 217.641C106.991 217.641 102.963 217.012 102.963 216.238C100.504 210.146 98.671 203.73 97.5542 197.071C95.2647 198.199 94.081 202.552 94.6358 207.619C94.5937 209.527 93.6223 208.091 93.6223 208.091C89.389 198.401 94.5537 190.791 96.5206 188.394C96.3656 186.218 96.2867 184.02 96.2867 181.804C96.2867 167.021 101.334 149.707 107.577 137.338C109.757 132.837 109.894 132.972 109.894 132.972C109.894 132.972 106.616 125.907 106.554 117.729C106.55 117.183 106.541 116.641 106.533 116.104C106.475 112.458 106.42 109.019 107.783 105.955C110.553 87.0731 159.112 84.8894 162.903 88.9121C163.087 89.0347 163.374 89.1862 163.634 89.3238C163.89 89.4587 164.12 89.5802 164.203 89.6479C172.306 87.2735 180.879 86 189.747 86C229.772 86 263.753 111.942 275.875 147.971C277.326 152.559 278.046 157.467 278.046 162.538C278.046 185.661 261.756 204.69 240.054 209.276C239.543 209.479 239.057 209.543 238.559 209.543C234.573 209.543 231.342 205.488 231.342 200.485C231.342 196.171 233.323 192.408 236.541 191.497C246.53 188.848 253.894 179.725 253.894 168.878ZM239.008 200.45C239.226 203.17 238.169 205.477 236.646 205.603C235.123 205.729 233.711 203.627 233.492 200.907C233.274 198.187 234.331 195.88 235.855 195.753C237.378 195.628 238.789 197.729 239.008 200.45Z" fill="white"/>
</g>
</g>
<defs>
<filter id="filter0_i_1094_2226" x="92" y="86" width="186.046" height="134.469" filterUnits="userSpaceOnUse" color-interpolation-filters="sRGB">
<feFlood flood-opacity="0" result="BackgroundImageFix"/>
<feBlend mode="normal" in="SourceGraphic" in2="BackgroundImageFix" result="shape"/>
<feColorMatrix in="SourceAlpha" type="matrix" values="0 0 0 0 0 0 0 0 0 0 0 0 0 0 0 0 0 0 127 0" result="hardAlpha"/>
<feOffset dy="2"/>
<feGaussianBlur stdDeviation="6.5"/>
<feComposite in2="hardAlpha" operator="arithmetic" k2="-1" k3="1"/>
<feColorMatrix type="matrix" values="0 0 0 0 1 0 0 0 0 1 0 0 0 0 1 0 0 0 0.206805 0"/>
<feBlend mode="normal" in2="shape" result="effect1_innerShadow_1094_2226"/>
</filter>
<linearGradient id="paint0_linear_1094_2226" x1="18" y1="18" x2="338" y2="338" gradientUnits="userSpaceOnUse">
<stop stop-color="#FFA6B7"/>
<stop offset="1" stop-color="#1E2AD2"/>
</linearGradient>
<linearGradient id="paint1_linear_1094_2226" x1="18" y1="18" x2="338" y2="338" gradientUnits="userSpaceOnUse">
<stop stop-color="#D775F6"/>
<stop offset="1" stop-color="#0083C7"/>
</linearGradient>
<radialGradient id="paint2_radial_1094_2226" cx="0" cy="0" r="1" gradientUnits="userSpaceOnUse" gradientTransform="translate(179 178) rotate(90) scale(152)">
<stop offset="0.828125" stop-color="white" stop-opacity="0"/>
<stop offset="1" stop-color="white" stop-opacity="0.66"/>
</radialGradient>
<radialGradient id="paint3_radial_1094_2226" cx="0" cy="0" r="1" gradientUnits="userSpaceOnUse" gradientTransform="translate(179 178) rotate(90) scale(135)">
<stop offset="0.828125" stop-color="white" stop-opacity="0"/>
<stop offset="1" stop-color="white" stop-opacity="0.66"/>
</radialGradient>
</defs>
</svg>
