<svg width="357" height="357" viewBox="0 0 357 357" fill="none" xmlns="http://www.w3.org/2000/svg">
<circle cx="259" cy="66" r="10" fill="#2DFF74" fill-opacity="0.38"/>
<circle cx="127" cy="39" r="5" fill="#2DFF74" fill-opacity="0.38"/>
<path d="M66.0291 161.933C66.2794 160.919 67.7206 160.919 67.9709 161.933L70.815 173.454C70.9041 173.814 71.1856 174.096 71.5462 174.185L83.0673 177.029C84.0811 177.279 84.0811 178.721 83.0673 178.971L71.5462 181.815C71.1856 181.904 70.9041 182.186 70.815 182.546L67.9709 194.067C67.7206 195.081 66.2794 195.081 66.0291 194.067L63.185 182.546C63.0959 182.186 62.8144 181.904 62.4538 181.815L50.9327 178.971C49.9189 178.721 49.9189 177.279 50.9327 177.029L62.4538 174.185C62.8144 174.096 63.0959 173.814 63.185 173.454L66.0291 161.933Z" fill="white" fill-opacity="0.87"/>
<g filter="url(#filter0_d_934_2652)">
<path d="M189.256 328.459C182.246 333.552 172.754 333.552 165.744 328.459L29.0027 229.11C21.993 224.018 19.0598 214.99 21.7373 206.75L73.9679 46.0003C76.6454 37.7599 84.3245 32.1807 92.989 32.1807L262.011 32.1806C270.675 32.1806 278.355 37.7598 281.032 46.0003L333.263 206.75C335.94 214.99 333.007 224.018 325.997 229.11L189.256 328.459Z" fill="url(#paint0_linear_934_2652)"/>
</g>
<path d="M163.964 72.089C170.104 61.1147 185.896 61.1147 192.036 72.089V72.089C196.455 79.9895 206.522 82.6869 214.3 78.0548V78.0548C225.104 71.6205 238.781 79.5167 238.611 92.0904V92.0904C238.488 101.142 245.858 108.512 254.91 108.389V108.389C267.483 108.219 275.379 121.896 268.945 132.7V132.7C264.313 140.478 267.011 150.545 274.911 154.964V154.964C285.885 161.104 285.885 176.896 274.911 183.036V183.036C267.011 187.455 264.313 197.522 268.945 205.3V205.3C275.379 216.104 267.483 229.781 254.91 229.611V229.611C245.858 229.488 238.488 236.858 238.611 245.91V245.91C238.781 258.483 225.104 266.379 214.3 259.945V259.945C206.522 255.313 196.455 258.011 192.036 265.911V265.911C185.896 276.885 170.104 276.885 163.964 265.911V265.911C159.545 258.011 149.478 255.313 141.7 259.945V259.945C130.896 266.379 117.219 258.483 117.389 245.91V245.91C117.512 236.858 110.142 229.488 101.09 229.611V229.611C88.5167 229.781 80.6205 216.104 87.0548 205.3V205.3C91.6869 197.522 88.9895 187.455 81.089 183.036V183.036C70.1147 176.896 70.1147 161.104 81.089 154.964V154.964C88.9895 150.545 91.6869 140.478 87.0548 132.7V132.7C80.6205 121.896 88.5167 108.219 101.09 108.389V108.389C110.142 108.512 117.512 101.142 117.389 92.0904V92.0904C117.219 79.5167 130.896 71.6205 141.7 78.0548V78.0548C149.478 82.6869 159.545 79.9895 163.964 72.089V72.089Z" fill="white"/>
<path fill-rule="evenodd" clip-rule="evenodd" d="M178 246C220.526 246 255 211.526 255 169C255 126.474 220.526 92 178 92C135.474 92 101 126.474 101 169C101 211.526 135.474 246 178 246ZM178 235C214.451 235 244 205.451 244 169C244 132.549 214.451 103 178 103C141.549 103 112 132.549 112 169C112 205.451 141.549 235 178 235Z" fill="#F04C0C"/>
<path d="M136.081 156.672L129.281 158.78C128.601 158.327 127.921 157.692 127.241 156.876C126.561 156.06 126.221 154.927 126.221 153.476C126.221 150.756 127.876 148.852 131.185 147.764L138.801 145.18H141.317C143.266 145.18 144.808 145.747 145.941 146.88C147.074 148.013 147.641 149.555 147.641 151.504V186.932C147.142 187.023 146.394 187.136 145.397 187.272C144.445 187.453 143.47 187.544 142.473 187.544C141.476 187.544 140.569 187.476 139.753 187.34C138.982 187.204 138.325 186.932 137.781 186.524C137.237 186.116 136.806 185.572 136.489 184.892C136.217 184.167 136.081 183.237 136.081 182.104V156.672ZM179.436 166.328C179.436 162.339 178.847 159.256 177.668 157.08C176.535 154.904 174.903 153.816 172.772 153.816C170.642 153.816 169.01 154.904 167.876 157.08C166.788 159.256 166.244 162.339 166.244 166.328C166.244 170.317 166.788 173.423 167.876 175.644C169.01 177.82 170.642 178.908 172.772 178.908C174.903 178.908 176.535 177.82 177.668 175.644C178.847 173.423 179.436 170.317 179.436 166.328ZM191.064 166.328C191.064 169.819 190.611 172.924 189.704 175.644C188.798 178.364 187.528 180.653 185.896 182.512C184.31 184.325 182.383 185.708 180.116 186.66C177.895 187.612 175.47 188.088 172.84 188.088C170.166 188.088 167.695 187.612 165.428 186.66C163.207 185.708 161.28 184.325 159.648 182.512C158.062 180.653 156.815 178.364 155.908 175.644C155.047 172.924 154.616 169.819 154.616 166.328C154.616 162.837 155.047 159.755 155.908 157.08C156.815 154.36 158.062 152.093 159.648 150.28C161.28 148.421 163.207 147.016 165.428 146.064C167.695 145.112 170.166 144.636 172.84 144.636C175.47 144.636 177.895 145.112 180.116 146.064C182.383 147.016 184.31 148.421 185.896 150.28C187.528 152.093 188.798 154.36 189.704 157.08C190.611 159.755 191.064 162.837 191.064 166.328ZM202.71 178.568C202.211 177.435 201.667 176.165 201.078 174.76C200.534 173.355 199.945 171.745 199.31 169.932C198.721 168.119 198.086 166.056 197.406 163.744C196.771 161.387 196.091 158.689 195.366 155.652C196.001 155.017 196.839 154.473 197.882 154.02C198.97 153.521 200.149 153.272 201.418 153.272C203.005 153.272 204.319 153.612 205.362 154.292C206.405 154.927 207.175 156.151 207.674 157.964L213.046 176.664H213.318C213.862 175.123 214.383 173.445 214.882 171.632C215.426 169.819 215.947 167.96 216.446 166.056C216.945 164.107 217.398 162.18 217.806 160.276C218.259 158.327 218.645 156.423 218.962 154.564C220.594 153.703 222.385 153.272 224.334 153.272C225.921 153.272 227.235 153.612 228.278 154.292C229.321 154.972 229.842 156.151 229.842 157.828C229.842 159.052 229.683 160.48 229.366 162.112C229.049 163.699 228.618 165.399 228.074 167.212C227.575 169.025 226.963 170.907 226.238 172.856C225.558 174.76 224.833 176.641 224.062 178.5C223.291 180.359 222.498 182.127 221.682 183.804C220.866 185.436 220.073 186.909 219.302 188.224C218.033 190.445 216.854 192.259 215.766 193.664C214.678 195.069 213.635 196.157 212.638 196.928C211.641 197.744 210.643 198.288 209.646 198.56C208.649 198.877 207.606 199.036 206.518 199.036C204.614 199.036 203.073 198.469 201.894 197.336C200.715 196.203 200.013 194.729 199.786 192.916C201.237 191.783 202.687 190.513 204.138 189.108C205.589 187.748 206.903 186.343 208.082 184.892C207.311 184.665 206.473 184.144 205.566 183.328C204.705 182.467 203.753 180.88 202.71 178.568Z" fill="black"/>
<path d="M254.029 47.9327C254.279 46.9189 255.721 46.9189 255.971 47.9327L258.815 59.4538C258.904 59.8144 259.186 60.0959 259.546 60.185L271.067 63.0291C272.081 63.2794 272.081 64.7206 271.067 64.9709L259.546 67.815C259.186 67.9041 258.904 68.1856 258.815 68.5462L255.971 80.0673C255.721 81.0811 254.279 81.0811 254.029 80.0673L251.185 68.5462C251.096 68.1856 250.814 67.9041 250.454 67.815L238.933 64.9709C237.919 64.7206 237.919 63.2794 238.933 63.0291L250.454 60.185C250.814 60.0959 251.096 59.8144 251.185 59.4538L254.029 47.9327Z" fill="white" fill-opacity="0.87"/>
<path d="M100.029 47.9327C100.279 46.9189 101.721 46.9189 101.971 47.9327L104.815 59.4538C104.904 59.8144 105.186 60.0959 105.546 60.185L117.067 63.0291C118.081 63.2794 118.081 64.7206 117.067 64.9709L105.546 67.815C105.186 67.9041 104.904 68.1856 104.815 68.5462L101.971 80.0673C101.721 81.0811 100.279 81.0811 100.029 80.0673L97.185 68.5462C97.0959 68.1856 96.8144 67.9041 96.4538 67.815L84.9327 64.9709C83.9189 64.7206 83.9189 63.2794 84.9327 63.0291L96.4538 60.185C96.8144 60.0959 97.0959 59.8144 97.185 59.4538L100.029 47.9327Z" fill="white" fill-opacity="0.87"/>
<path d="M55.0291 189.933C55.2794 188.919 56.7206 188.919 56.9709 189.933L59.815 201.454C59.9041 201.814 60.1856 202.096 60.5462 202.185L72.0673 205.029C73.0811 205.279 73.0811 206.721 72.0673 206.971L60.5462 209.815C60.1856 209.904 59.9041 210.186 59.815 210.546L56.9709 222.067C56.7206 223.081 55.2794 223.081 55.0291 222.067L52.185 210.546C52.0959 210.186 51.8144 209.904 51.4538 209.815L39.9327 206.971C38.9189 206.721 38.9189 205.279 39.9327 205.029L51.4538 202.185C51.8144 202.096 52.0959 201.814 52.185 201.454L55.0291 189.933Z" fill="white" fill-opacity="0.87"/>
<path d="M177.029 282.933C177.279 281.919 178.721 281.919 178.971 282.933L181.815 294.454C181.904 294.814 182.186 295.096 182.546 295.185L194.067 298.029C195.081 298.279 195.081 299.721 194.067 299.971L182.546 302.815C182.186 302.904 181.904 303.186 181.815 303.546L178.971 315.067C178.721 316.081 177.279 316.081 177.029 315.067L174.185 303.546C174.096 303.186 173.814 302.904 173.454 302.815L161.933 299.971C160.919 299.721 160.919 298.279 161.933 298.029L173.454 295.185C173.814 295.096 174.096 294.814 174.185 294.454L177.029 282.933Z" fill="white" fill-opacity="0.87"/>
<path d="M299.029 189.933C299.279 188.919 300.721 188.919 300.971 189.933L303.815 201.454C303.904 201.814 304.186 202.096 304.546 202.185L316.067 205.029C317.081 205.279 317.081 206.721 316.067 206.971L304.546 209.815C304.186 209.904 303.904 210.186 303.815 210.546L300.971 222.067C300.721 223.081 299.279 223.081 299.029 222.067L296.185 210.546C296.096 210.186 295.814 209.904 295.454 209.815L283.933 206.971C282.919 206.721 282.919 205.279 283.933 205.029L295.454 202.185C295.814 202.096 296.096 201.814 296.185 201.454L299.029 189.933Z" fill="white" fill-opacity="0.87"/>
<defs>
<filter id="filter0_d_934_2652" x="16.757" y="32.1807" width="321.486" height="308.098" filterUnits="userSpaceOnUse" color-interpolation-filters="sRGB">
<feFlood flood-opacity="0" result="BackgroundImageFix"/>
<feColorMatrix in="SourceAlpha" type="matrix" values="0 0 0 0 0 0 0 0 0 0 0 0 0 0 0 0 0 0 127 0" result="hardAlpha"/>
<feOffset dy="4"/>
<feGaussianBlur stdDeviation="2"/>
<feColorMatrix type="matrix" values="0 0 0 0 0 0 0 0 0 0 0 0 0 0 0 0 0 0 0.25 0"/>
<feBlend mode="normal" in2="BackgroundImageFix" result="effect1_dropShadow_934_2652"/>
<feBlend mode="normal" in="SourceGraphic" in2="effect1_dropShadow_934_2652" result="shape"/>
</filter>
<linearGradient id="paint0_linear_934_2652" x1="337.753" y1="337" x2="33.3171" y2="16.8971" gradientUnits="userSpaceOnUse">
<stop stop-color="#FDD819"/>
<stop offset="1" stop-color="#E80505"/>
</linearGradient>
</defs>
</svg>
