<svg width="357" height="357" viewBox="0 0 357 357" fill="none" xmlns="http://www.w3.org/2000/svg">
<circle cx="259" cy="66" r="10" fill="#2DFF74" fill-opacity="0.38"/>
<circle cx="127" cy="39" r="5" fill="#2DFF74" fill-opacity="0.38"/>
<path d="M66.0291 161.933C66.2794 160.919 67.7206 160.919 67.9709 161.933L70.815 173.454C70.9041 173.814 71.1856 174.096 71.5462 174.185L83.0673 177.029C84.0811 177.279 84.0811 178.721 83.0673 178.971L71.5462 181.815C71.1856 181.904 70.9041 182.186 70.815 182.546L67.9709 194.067C67.7206 195.081 66.2794 195.081 66.0291 194.067L63.185 182.546C63.0959 182.186 62.8144 181.904 62.4538 181.815L50.9327 178.971C49.9189 178.721 49.9189 177.279 50.9327 177.029L62.4538 174.185C62.8144 174.096 63.0959 173.814 63.185 173.454L66.0291 161.933Z" fill="white" fill-opacity="0.87"/>
<g filter="url(#filter0_d_934_2443)">
<path d="M189.256 328.459C182.246 333.552 172.754 333.552 165.744 328.459L29.0027 229.11C21.993 224.018 19.0598 214.99 21.7373 206.75L73.9679 46.0003C76.6454 37.7599 84.3245 32.1807 92.989 32.1807L262.011 32.1806C270.675 32.1806 278.355 37.7598 281.032 46.0003L333.263 206.75C335.94 214.99 333.007 224.018 325.997 229.11L189.256 328.459Z" fill="#00ACD1"/>
<path d="M189.256 328.459C182.246 333.552 172.754 333.552 165.744 328.459L29.0027 229.11C21.993 224.018 19.0598 214.99 21.7373 206.75L73.9679 46.0003C76.6454 37.7599 84.3245 32.1807 92.989 32.1807L262.011 32.1806C270.675 32.1806 278.355 37.7598 281.032 46.0003L333.263 206.75C335.94 214.99 333.007 224.018 325.997 229.11L189.256 328.459Z" fill="url(#paint0_linear_934_2443)"/>
</g>
<path d="M163.964 72.089C170.104 61.1147 185.896 61.1147 192.036 72.089V72.089C196.455 79.9895 206.522 82.6869 214.3 78.0548V78.0548C225.104 71.6205 238.781 79.5167 238.611 92.0904V92.0904C238.488 101.142 245.858 108.512 254.91 108.389V108.389C267.483 108.219 275.379 121.896 268.945 132.7V132.7C264.313 140.478 267.011 150.545 274.911 154.964V154.964C285.885 161.104 285.885 176.896 274.911 183.036V183.036C267.011 187.455 264.313 197.522 268.945 205.3V205.3C275.379 216.104 267.483 229.781 254.91 229.611V229.611C245.858 229.488 238.488 236.858 238.611 245.91V245.91C238.781 258.483 225.104 266.379 214.3 259.945V259.945C206.522 255.313 196.455 258.011 192.036 265.911V265.911C185.896 276.885 170.104 276.885 163.964 265.911V265.911C159.545 258.011 149.478 255.313 141.7 259.945V259.945C130.896 266.379 117.219 258.483 117.389 245.91V245.91C117.512 236.858 110.142 229.488 101.09 229.611V229.611C88.5167 229.781 80.6205 216.104 87.0548 205.3V205.3C91.6869 197.522 88.9895 187.455 81.089 183.036V183.036C70.1147 176.896 70.1147 161.104 81.089 154.964V154.964C88.9895 150.545 91.6869 140.478 87.0548 132.7V132.7C80.6205 121.896 88.5167 108.219 101.09 108.389V108.389C110.142 108.512 117.512 101.142 117.389 92.0904V92.0904C117.219 79.5167 130.896 71.6205 141.7 78.0548V78.0548C149.478 82.6869 159.545 79.9895 163.964 72.089V72.089Z" fill="white"/>
<path fill-rule="evenodd" clip-rule="evenodd" d="M178 246C220.526 246 255 211.526 255 169C255 126.474 220.526 92 178 92C135.474 92 101 126.474 101 169C101 211.526 135.474 246 178 246ZM178 235C214.451 235 244 205.451 244 169C244 132.549 214.451 103 178 103C141.549 103 112 132.549 112 169C112 205.451 141.549 235 178 235Z" fill="#EAC5F7"/>
<path d="M152.849 154.874L144.749 157.385C143.939 156.845 143.129 156.089 142.319 155.117C141.509 154.145 141.104 152.795 141.104 151.067C141.104 147.827 143.075 145.559 147.017 144.263L156.089 141.185H159.086C161.408 141.185 163.244 141.86 164.594 143.21C165.944 144.56 166.619 146.396 166.619 148.718V190.919C166.025 191.027 165.134 191.162 163.946 191.324C162.812 191.54 161.651 191.648 160.463 191.648C159.275 191.648 158.195 191.567 157.223 191.405C156.305 191.243 155.522 190.919 154.874 190.433C154.226 189.947 153.713 189.299 153.335 188.489C153.011 187.625 152.849 186.518 152.849 185.168V154.874ZM182.461 180.956C181.867 179.606 181.219 178.094 180.517 176.42C179.869 174.746 179.167 172.829 178.411 170.669C177.709 168.509 176.953 166.052 176.143 163.298C175.387 160.49 174.577 157.277 173.713 153.659C174.469 152.903 175.468 152.255 176.71 151.715C178.006 151.121 179.41 150.824 180.922 150.824C182.812 150.824 184.378 151.229 185.62 152.039C186.862 152.795 187.78 154.253 188.374 156.413L194.773 178.688H195.097C195.745 176.852 196.366 174.854 196.96 172.694C197.608 170.534 198.229 168.32 198.823 166.052C199.417 163.73 199.957 161.435 200.443 159.167C200.983 156.845 201.442 154.577 201.82 152.363C203.764 151.337 205.897 150.824 208.219 150.824C210.109 150.824 211.675 151.229 212.917 152.039C214.159 152.849 214.78 154.253 214.78 156.251C214.78 157.709 214.591 159.41 214.213 161.354C213.835 163.244 213.322 165.269 212.674 167.429C212.08 169.589 211.351 171.83 210.487 174.152C209.677 176.42 208.813 178.661 207.895 180.875C206.977 183.089 206.032 185.195 205.06 187.193C204.088 189.137 203.143 190.892 202.225 192.458C200.713 195.104 199.309 197.264 198.013 198.938C196.717 200.612 195.475 201.908 194.287 202.826C193.099 203.798 191.911 204.446 190.723 204.77C189.535 205.148 188.293 205.337 186.997 205.337C184.729 205.337 182.893 204.662 181.489 203.312C180.085 201.962 179.248 200.207 178.978 198.047C180.706 196.697 182.434 195.185 184.162 193.511C185.89 191.891 187.456 190.217 188.86 188.489C187.942 188.219 186.943 187.598 185.863 186.626C184.837 185.6 183.703 183.71 182.461 180.956Z" fill="black"/>
<path d="M100.029 47.9327C100.279 46.9189 101.721 46.9189 101.971 47.9327L104.815 59.4538C104.904 59.8144 105.186 60.0959 105.546 60.185L117.067 63.0291C118.081 63.2794 118.081 64.7206 117.067 64.9709L105.546 67.815C105.186 67.9041 104.904 68.1856 104.815 68.5462L101.971 80.0673C101.721 81.0811 100.279 81.0811 100.029 80.0673L97.185 68.5462C97.0959 68.1856 96.8144 67.9041 96.4538 67.815L84.9327 64.9709C83.9189 64.7206 83.9189 63.2794 84.9327 63.0291L96.4538 60.185C96.8144 60.0959 97.0959 59.8144 97.185 59.4538L100.029 47.9327Z" fill="white" fill-opacity="0.87"/>
<defs>
<filter id="filter0_d_934_2443" x="16.757" y="32.1807" width="321.486" height="308.098" filterUnits="userSpaceOnUse" color-interpolation-filters="sRGB">
<feFlood flood-opacity="0" result="BackgroundImageFix"/>
<feColorMatrix in="SourceAlpha" type="matrix" values="0 0 0 0 0 0 0 0 0 0 0 0 0 0 0 0 0 0 127 0" result="hardAlpha"/>
<feOffset dy="4"/>
<feGaussianBlur stdDeviation="2"/>
<feColorMatrix type="matrix" values="0 0 0 0 0 0 0 0 0 0 0 0 0 0 0 0 0 0 0.25 0"/>
<feBlend mode="normal" in2="BackgroundImageFix" result="effect1_dropShadow_934_2443"/>
<feBlend mode="normal" in="SourceGraphic" in2="effect1_dropShadow_934_2443" result="shape"/>
</filter>
<linearGradient id="paint0_linear_934_2443" x1="33.963" y1="329.558" x2="262.43" y2="-35.1499" gradientUnits="userSpaceOnUse">
<stop stop-color="#FF006B" stop-opacity="0.92"/>
<stop offset="1" stop-color="#FF004D" stop-opacity="0"/>
</linearGradient>
</defs>
</svg>
