<svg width="357" height="357" viewBox="0 0 357 357" fill="none" xmlns="http://www.w3.org/2000/svg">
<circle cx="259" cy="66" r="10" fill="#2DFF74" fill-opacity="0.38"/>
<circle cx="127" cy="39" r="5" fill="#2DFF74" fill-opacity="0.38"/>
<path d="M66.0291 161.933C66.2794 160.919 67.7206 160.919 67.9709 161.933L70.815 173.454C70.9041 173.814 71.1856 174.096 71.5462 174.185L83.0673 177.029C84.0811 177.279 84.0811 178.721 83.0673 178.971L71.5462 181.815C71.1856 181.904 70.9041 182.186 70.815 182.546L67.9709 194.067C67.7206 195.081 66.2794 195.081 66.0291 194.067L63.185 182.546C63.0959 182.186 62.8144 181.904 62.4538 181.815L50.9327 178.971C49.9189 178.721 49.9189 177.279 50.9327 177.029L62.4538 174.185C62.8144 174.096 63.0959 173.814 63.185 173.454L66.0291 161.933Z" fill="white" fill-opacity="0.87"/>
<g filter="url(#filter0_d_934_2624)">
<path d="M189.256 328.459C182.246 333.552 172.754 333.552 165.744 328.459L29.0027 229.11C21.993 224.018 19.0598 214.99 21.7373 206.75L73.9679 46.0003C76.6454 37.7599 84.3245 32.1807 92.989 32.1807L262.011 32.1806C270.675 32.1806 278.355 37.7598 281.032 46.0003L333.263 206.75C335.94 214.99 333.007 224.018 325.997 229.11L189.256 328.459Z" fill="url(#paint0_linear_934_2624)"/>
</g>
<path d="M163.964 72.089C170.104 61.1147 185.896 61.1147 192.036 72.089V72.089C196.455 79.9895 206.522 82.6869 214.3 78.0548V78.0548C225.104 71.6205 238.781 79.5167 238.611 92.0904V92.0904C238.488 101.142 245.858 108.512 254.91 108.389V108.389C267.483 108.219 275.379 121.896 268.945 132.7V132.7C264.313 140.478 267.011 150.545 274.911 154.964V154.964C285.885 161.104 285.885 176.896 274.911 183.036V183.036C267.011 187.455 264.313 197.522 268.945 205.3V205.3C275.379 216.104 267.483 229.781 254.91 229.611V229.611C245.858 229.488 238.488 236.858 238.611 245.91V245.91C238.781 258.483 225.104 266.379 214.3 259.945V259.945C206.522 255.313 196.455 258.011 192.036 265.911V265.911C185.896 276.885 170.104 276.885 163.964 265.911V265.911C159.545 258.011 149.478 255.313 141.7 259.945V259.945C130.896 266.379 117.219 258.483 117.389 245.91V245.91C117.512 236.858 110.142 229.488 101.09 229.611V229.611C88.5167 229.781 80.6205 216.104 87.0548 205.3V205.3C91.6869 197.522 88.9895 187.455 81.089 183.036V183.036C70.1147 176.896 70.1147 161.104 81.089 154.964V154.964C88.9895 150.545 91.6869 140.478 87.0548 132.7V132.7C80.6205 121.896 88.5167 108.219 101.09 108.389V108.389C110.142 108.512 117.512 101.142 117.389 92.0904V92.0904C117.219 79.5167 130.896 71.6205 141.7 78.0548V78.0548C149.478 82.6869 159.545 79.9895 163.964 72.089V72.089Z" fill="white"/>
<path fill-rule="evenodd" clip-rule="evenodd" d="M178 246C220.526 246 255 211.526 255 169C255 126.474 220.526 92 178 92C135.474 92 101 126.474 101 169C101 211.526 135.474 246 178 246ZM178 235C214.451 235 244 205.451 244 169C244 132.549 214.451 103 178 103C141.549 103 112 132.549 112 169C112 205.451 141.549 235 178 235Z" fill="url(#paint1_linear_934_2624)"/>
<path d="M137.779 155.036C137.779 152.876 138.238 150.905 139.156 149.123C140.074 147.341 141.343 145.802 142.963 144.506C144.583 143.21 146.527 142.211 148.795 141.509C151.063 140.807 153.547 140.456 156.247 140.456C158.947 140.456 161.431 140.78 163.699 141.428C165.967 142.076 167.911 142.994 169.531 144.182C171.151 145.37 172.42 146.828 173.338 148.556C174.256 150.284 174.715 152.228 174.715 154.388C174.715 156.764 174.229 158.843 173.257 160.625C172.285 162.407 170.935 163.892 169.207 165.08C171.259 166.484 172.933 168.158 174.229 170.102C175.525 171.992 176.173 174.557 176.173 177.797C176.173 179.957 175.714 181.928 174.796 183.71C173.878 185.492 172.555 187.031 170.827 188.327C169.099 189.623 167.02 190.622 164.59 191.324C162.16 192.026 159.433 192.377 156.409 192.377C153.385 192.377 150.658 192.026 148.228 191.324C145.798 190.622 143.719 189.623 141.991 188.327C140.317 187.031 138.994 185.492 138.022 183.71C137.104 181.928 136.645 179.957 136.645 177.797C136.645 174.881 137.266 172.451 138.508 170.507C139.804 168.563 141.316 167.051 143.044 165.971C141.586 164.783 140.344 163.379 139.318 161.759C138.292 160.085 137.779 157.844 137.779 155.036ZM150.496 176.582C150.496 178.256 151.036 179.579 152.116 180.551C153.25 181.523 154.681 182.009 156.409 182.009C158.137 182.009 159.541 181.523 160.621 180.551C161.755 179.525 162.322 178.202 162.322 176.582C162.322 175.016 161.836 173.72 160.864 172.694C159.946 171.614 158.677 170.777 157.057 170.183C154.681 170.723 152.98 171.56 151.954 172.694C150.982 173.774 150.496 175.07 150.496 176.582ZM161.188 155.522C161.188 154.064 160.756 152.903 159.892 152.039C159.028 151.175 157.813 150.743 156.247 150.743C154.681 150.743 153.466 151.175 152.602 152.039C151.738 152.903 151.306 154.037 151.306 155.441C151.306 156.845 151.738 157.979 152.602 158.843C153.52 159.707 154.573 160.409 155.761 160.949C157.651 160.517 159.028 159.815 159.892 158.843C160.756 157.871 161.188 156.764 161.188 155.522ZM189.026 180.956C188.432 179.606 187.784 178.094 187.082 176.42C186.434 174.746 185.732 172.829 184.976 170.669C184.274 168.509 183.518 166.052 182.708 163.298C181.952 160.49 181.142 157.277 180.278 153.659C181.034 152.903 182.033 152.255 183.275 151.715C184.571 151.121 185.975 150.824 187.487 150.824C189.377 150.824 190.943 151.229 192.185 152.039C193.427 152.795 194.345 154.253 194.939 156.413L201.338 178.688H201.662C202.31 176.852 202.931 174.854 203.525 172.694C204.173 170.534 204.794 168.32 205.388 166.052C205.982 163.73 206.522 161.435 207.008 159.167C207.548 156.845 208.007 154.577 208.385 152.363C210.329 151.337 212.462 150.824 214.784 150.824C216.674 150.824 218.24 151.229 219.482 152.039C220.724 152.849 221.345 154.253 221.345 156.251C221.345 157.709 221.156 159.41 220.778 161.354C220.4 163.244 219.887 165.269 219.239 167.429C218.645 169.589 217.916 171.83 217.052 174.152C216.242 176.42 215.378 178.661 214.46 180.875C213.542 183.089 212.597 185.195 211.625 187.193C210.653 189.137 209.708 190.892 208.79 192.458C207.278 195.104 205.874 197.264 204.578 198.938C203.282 200.612 202.04 201.908 200.852 202.826C199.664 203.798 198.476 204.446 197.288 204.77C196.1 205.148 194.858 205.337 193.562 205.337C191.294 205.337 189.458 204.662 188.054 203.312C186.65 201.962 185.813 200.207 185.543 198.047C187.271 196.697 188.999 195.185 190.727 193.511C192.455 191.891 194.021 190.217 195.425 188.489C194.507 188.219 193.508 187.598 192.428 186.626C191.402 185.6 190.268 183.71 189.026 180.956Z" fill="black"/>
<path d="M254.029 47.9327C254.279 46.9189 255.721 46.9189 255.971 47.9327L258.815 59.4538C258.904 59.8144 259.186 60.0959 259.546 60.185L271.067 63.0291C272.081 63.2794 272.081 64.7206 271.067 64.9709L259.546 67.815C259.186 67.9041 258.904 68.1856 258.815 68.5462L255.971 80.0673C255.721 81.0811 254.279 81.0811 254.029 80.0673L251.185 68.5462C251.096 68.1856 250.814 67.9041 250.454 67.815L238.933 64.9709C237.919 64.7206 237.919 63.2794 238.933 63.0291L250.454 60.185C250.814 60.0959 251.096 59.8144 251.185 59.4538L254.029 47.9327Z" fill="white" fill-opacity="0.87"/>
<path d="M100.029 47.9327C100.279 46.9189 101.721 46.9189 101.971 47.9327L104.815 59.4538C104.904 59.8144 105.186 60.0959 105.546 60.185L117.067 63.0291C118.081 63.2794 118.081 64.7206 117.067 64.9709L105.546 67.815C105.186 67.9041 104.904 68.1856 104.815 68.5462L101.971 80.0673C101.721 81.0811 100.279 81.0811 100.029 80.0673L97.185 68.5462C97.0959 68.1856 96.8144 67.9041 96.4538 67.815L84.9327 64.9709C83.9189 64.7206 83.9189 63.2794 84.9327 63.0291L96.4538 60.185C96.8144 60.0959 97.0959 59.8144 97.185 59.4538L100.029 47.9327Z" fill="white" fill-opacity="0.87"/>
<path d="M55.0291 189.933C55.2794 188.919 56.7206 188.919 56.9709 189.933L59.815 201.454C59.9041 201.814 60.1856 202.096 60.5462 202.185L72.0673 205.029C73.0811 205.279 73.0811 206.721 72.0673 206.971L60.5462 209.815C60.1856 209.904 59.9041 210.186 59.815 210.546L56.9709 222.067C56.7206 223.081 55.2794 223.081 55.0291 222.067L52.185 210.546C52.0959 210.186 51.8144 209.904 51.4538 209.815L39.9327 206.971C38.9189 206.721 38.9189 205.279 39.9327 205.029L51.4538 202.185C51.8144 202.096 52.0959 201.814 52.185 201.454L55.0291 189.933Z" fill="white" fill-opacity="0.87"/>
<path d="M177.029 282.933C177.279 281.919 178.721 281.919 178.971 282.933L181.815 294.454C181.904 294.814 182.186 295.096 182.546 295.185L194.067 298.029C195.081 298.279 195.081 299.721 194.067 299.971L182.546 302.815C182.186 302.904 181.904 303.186 181.815 303.546L178.971 315.067C178.721 316.081 177.279 316.081 177.029 315.067L174.185 303.546C174.096 303.186 173.814 302.904 173.454 302.815L161.933 299.971C160.919 299.721 160.919 298.279 161.933 298.029L173.454 295.185C173.814 295.096 174.096 294.814 174.185 294.454L177.029 282.933Z" fill="white" fill-opacity="0.87"/>
<path d="M299.029 189.933C299.279 188.919 300.721 188.919 300.971 189.933L303.815 201.454C303.904 201.814 304.186 202.096 304.546 202.185L316.067 205.029C317.081 205.279 317.081 206.721 316.067 206.971L304.546 209.815C304.186 209.904 303.904 210.186 303.815 210.546L300.971 222.067C300.721 223.081 299.279 223.081 299.029 222.067L296.185 210.546C296.096 210.186 295.814 209.904 295.454 209.815L283.933 206.971C282.919 206.721 282.919 205.279 283.933 205.029L295.454 202.185C295.814 202.096 296.096 201.814 296.185 201.454L299.029 189.933Z" fill="white" fill-opacity="0.87"/>
<defs>
<filter id="filter0_d_934_2624" x="16.757" y="32.1807" width="321.486" height="308.098" filterUnits="userSpaceOnUse" color-interpolation-filters="sRGB">
<feFlood flood-opacity="0" result="BackgroundImageFix"/>
<feColorMatrix in="SourceAlpha" type="matrix" values="0 0 0 0 0 0 0 0 0 0 0 0 0 0 0 0 0 0 127 0" result="hardAlpha"/>
<feOffset dy="4"/>
<feGaussianBlur stdDeviation="2"/>
<feColorMatrix type="matrix" values="0 0 0 0 0 0 0 0 0 0 0 0 0 0 0 0 0 0 0.25 0"/>
<feBlend mode="normal" in2="BackgroundImageFix" result="effect1_dropShadow_934_2624"/>
<feBlend mode="normal" in="SourceGraphic" in2="effect1_dropShadow_934_2624" result="shape"/>
</filter>
<linearGradient id="paint0_linear_934_2624" x1="337.753" y1="337" x2="33.3171" y2="16.8971" gradientUnits="userSpaceOnUse">
<stop stop-color="#FD6585"/>
<stop offset="1" stop-color="#0D25B9"/>
</linearGradient>
<linearGradient id="paint1_linear_934_2624" x1="101" y1="92" x2="255" y2="246" gradientUnits="userSpaceOnUse">
<stop stop-color="#FD6585"/>
<stop offset="1" stop-color="#0D25B9"/>
</linearGradient>
</defs>
</svg>
