<svg width="357" height="357" viewBox="0 0 357 357" fill="none" xmlns="http://www.w3.org/2000/svg">
<circle cx="259" cy="66" r="10" fill="#2DFF74" fill-opacity="0.38"/>
<circle cx="127" cy="39" r="5" fill="#2DFF74" fill-opacity="0.38"/>
<path d="M66.0291 161.933C66.2794 160.919 67.7206 160.919 67.9709 161.933L70.815 173.454C70.9041 173.814 71.1856 174.096 71.5462 174.185L83.0673 177.029C84.0811 177.279 84.0811 178.721 83.0673 178.971L71.5462 181.815C71.1856 181.904 70.9041 182.186 70.815 182.546L67.9709 194.067C67.7206 195.081 66.2794 195.081 66.0291 194.067L63.185 182.546C63.0959 182.186 62.8144 181.904 62.4538 181.815L50.9327 178.971C49.9189 178.721 49.9189 177.279 50.9327 177.029L62.4538 174.185C62.8144 174.096 63.0959 173.814 63.185 173.454L66.0291 161.933Z" fill="white" fill-opacity="0.87"/>
<g filter="url(#filter0_d_934_2554)">
<path d="M189.256 328.459C182.246 333.552 172.754 333.552 165.744 328.459L29.0027 229.11C21.993 224.018 19.0598 214.99 21.7373 206.75L73.9679 46.0003C76.6454 37.7599 84.3245 32.1807 92.989 32.1807L262.011 32.1806C270.675 32.1806 278.355 37.7598 281.032 46.0003L333.263 206.75C335.94 214.99 333.007 224.018 325.997 229.11L189.256 328.459Z" fill="url(#paint0_linear_934_2554)"/>
</g>
<path d="M163.964 72.089C170.104 61.1147 185.896 61.1147 192.036 72.089V72.089C196.455 79.9895 206.522 82.6869 214.3 78.0548V78.0548C225.104 71.6205 238.781 79.5167 238.611 92.0904V92.0904C238.488 101.142 245.858 108.512 254.91 108.389V108.389C267.483 108.219 275.379 121.896 268.945 132.7V132.7C264.313 140.478 267.011 150.545 274.911 154.964V154.964C285.885 161.104 285.885 176.896 274.911 183.036V183.036C267.011 187.455 264.313 197.522 268.945 205.3V205.3C275.379 216.104 267.483 229.781 254.91 229.611V229.611C245.858 229.488 238.488 236.858 238.611 245.91V245.91C238.781 258.483 225.104 266.379 214.3 259.945V259.945C206.522 255.313 196.455 258.011 192.036 265.911V265.911C185.896 276.885 170.104 276.885 163.964 265.911V265.911C159.545 258.011 149.478 255.313 141.7 259.945V259.945C130.896 266.379 117.219 258.483 117.389 245.91V245.91C117.512 236.858 110.142 229.488 101.09 229.611V229.611C88.5167 229.781 80.6205 216.104 87.0548 205.3V205.3C91.6869 197.522 88.9895 187.455 81.089 183.036V183.036C70.1147 176.896 70.1147 161.104 81.089 154.964V154.964C88.9895 150.545 91.6869 140.478 87.0548 132.7V132.7C80.6205 121.896 88.5167 108.219 101.09 108.389V108.389C110.142 108.512 117.512 101.142 117.389 92.0904V92.0904C117.219 79.5167 130.896 71.6205 141.7 78.0548V78.0548C149.478 82.6869 159.545 79.9895 163.964 72.089V72.089Z" fill="white"/>
<path fill-rule="evenodd" clip-rule="evenodd" d="M178 246C220.526 246 255 211.526 255 169C255 126.474 220.526 92 178 92C135.474 92 101 126.474 101 169C101 211.526 135.474 246 178 246ZM178 235C214.451 235 244 205.451 244 169C244 132.549 214.451 103 178 103C141.549 103 112 132.549 112 169C112 205.451 141.549 235 178 235Z" fill="url(#paint1_linear_934_2554)"/>
<path d="M155.679 192.296C153.195 192.296 150.927 192.107 148.875 191.729C146.877 191.351 145.149 190.784 143.691 190.028C142.233 189.272 141.099 188.354 140.289 187.274C139.479 186.14 139.074 184.844 139.074 183.386C139.074 181.874 139.506 180.605 140.37 179.579C141.234 178.553 142.206 177.743 143.286 177.149C144.798 178.283 146.418 179.282 148.146 180.146C149.874 180.956 152.061 181.361 154.707 181.361C157.245 181.361 159.054 180.794 160.134 179.66C161.214 178.526 161.754 177.149 161.754 175.529C161.754 173.963 161.268 172.667 160.296 171.641C159.378 170.615 157.758 170.102 155.436 170.102C153.978 170.102 152.763 170.264 151.791 170.588C150.819 170.912 149.712 171.371 148.47 171.965C145.824 171.857 143.718 171.155 142.152 169.859C140.64 168.509 139.884 166.457 139.884 163.703C139.884 163.541 139.884 163.352 139.884 163.136C139.884 162.866 139.911 162.353 139.965 161.597L140.937 149.285C141.099 146.963 141.828 145.127 143.124 143.777C144.42 142.427 146.229 141.752 148.551 141.752H171.879C172.203 142.346 172.527 143.129 172.851 144.101C173.175 145.073 173.337 146.099 173.337 147.179C173.337 149.231 172.878 150.689 171.96 151.553C171.042 152.417 169.881 152.849 168.477 152.849H152.925L152.358 160.463C153.384 160.193 154.41 159.95 155.436 159.734C156.516 159.518 157.866 159.41 159.486 159.41C162.294 159.41 164.724 159.842 166.776 160.706C168.828 161.516 170.502 162.65 171.798 164.108C173.148 165.566 174.12 167.267 174.714 169.211C175.362 171.155 175.686 173.234 175.686 175.448C175.686 177.662 175.308 179.795 174.552 181.847C173.796 183.899 172.608 185.708 170.988 187.274C169.368 188.786 167.289 190.001 164.751 190.919C162.267 191.837 159.243 192.296 155.679 192.296ZM187.326 180.956C186.732 179.606 186.084 178.094 185.382 176.42C184.734 174.746 184.032 172.829 183.276 170.669C182.574 168.509 181.818 166.052 181.008 163.298C180.252 160.49 179.442 157.277 178.578 153.659C179.334 152.903 180.333 152.255 181.575 151.715C182.871 151.121 184.275 150.824 185.787 150.824C187.677 150.824 189.243 151.229 190.485 152.039C191.727 152.795 192.645 154.253 193.239 156.413L199.638 178.688H199.962C200.61 176.852 201.231 174.854 201.825 172.694C202.473 170.534 203.094 168.32 203.688 166.052C204.282 163.73 204.822 161.435 205.308 159.167C205.848 156.845 206.307 154.577 206.685 152.363C208.629 151.337 210.762 150.824 213.084 150.824C214.974 150.824 216.54 151.229 217.782 152.039C219.024 152.849 219.645 154.253 219.645 156.251C219.645 157.709 219.456 159.41 219.078 161.354C218.7 163.244 218.187 165.269 217.539 167.429C216.945 169.589 216.216 171.83 215.352 174.152C214.542 176.42 213.678 178.661 212.76 180.875C211.842 183.089 210.897 185.195 209.925 187.193C208.953 189.137 208.008 190.892 207.09 192.458C205.578 195.104 204.174 197.264 202.878 198.938C201.582 200.612 200.34 201.908 199.152 202.826C197.964 203.798 196.776 204.446 195.588 204.77C194.4 205.148 193.158 205.337 191.862 205.337C189.594 205.337 187.758 204.662 186.354 203.312C184.95 201.962 184.113 200.207 183.843 198.047C185.571 196.697 187.299 195.185 189.027 193.511C190.755 191.891 192.321 190.217 193.725 188.489C192.807 188.219 191.808 187.598 190.728 186.626C189.702 185.6 188.568 183.71 187.326 180.956Z" fill="black"/>
<path d="M254.029 47.9327C254.279 46.9189 255.721 46.9189 255.971 47.9327L258.815 59.4538C258.904 59.8144 259.186 60.0959 259.546 60.185L271.067 63.0291C272.081 63.2794 272.081 64.7206 271.067 64.9709L259.546 67.815C259.186 67.9041 258.904 68.1856 258.815 68.5462L255.971 80.0673C255.721 81.0811 254.279 81.0811 254.029 80.0673L251.185 68.5462C251.096 68.1856 250.814 67.9041 250.454 67.815L238.933 64.9709C237.919 64.7206 237.919 63.2794 238.933 63.0291L250.454 60.185C250.814 60.0959 251.096 59.8144 251.185 59.4538L254.029 47.9327Z" fill="white" fill-opacity="0.87"/>
<path d="M100.029 47.9327C100.279 46.9189 101.721 46.9189 101.971 47.9327L104.815 59.4538C104.904 59.8144 105.186 60.0959 105.546 60.185L117.067 63.0291C118.081 63.2794 118.081 64.7206 117.067 64.9709L105.546 67.815C105.186 67.9041 104.904 68.1856 104.815 68.5462L101.971 80.0673C101.721 81.0811 100.279 81.0811 100.029 80.0673L97.185 68.5462C97.0959 68.1856 96.8144 67.9041 96.4538 67.815L84.9327 64.9709C83.9189 64.7206 83.9189 63.2794 84.9327 63.0291L96.4538 60.185C96.8144 60.0959 97.0959 59.8144 97.185 59.4538L100.029 47.9327Z" fill="white" fill-opacity="0.87"/>
<path d="M55.0291 189.933C55.2794 188.919 56.7206 188.919 56.9709 189.933L59.815 201.454C59.9041 201.814 60.1856 202.096 60.5462 202.185L72.0673 205.029C73.0811 205.279 73.0811 206.721 72.0673 206.971L60.5462 209.815C60.1856 209.904 59.9041 210.186 59.815 210.546L56.9709 222.067C56.7206 223.081 55.2794 223.081 55.0291 222.067L52.185 210.546C52.0959 210.186 51.8144 209.904 51.4538 209.815L39.9327 206.971C38.9189 206.721 38.9189 205.279 39.9327 205.029L51.4538 202.185C51.8144 202.096 52.0959 201.814 52.185 201.454L55.0291 189.933Z" fill="white" fill-opacity="0.87"/>
<path d="M177.029 282.933C177.279 281.919 178.721 281.919 178.971 282.933L181.815 294.454C181.904 294.814 182.186 295.096 182.546 295.185L194.067 298.029C195.081 298.279 195.081 299.721 194.067 299.971L182.546 302.815C182.186 302.904 181.904 303.186 181.815 303.546L178.971 315.067C178.721 316.081 177.279 316.081 177.029 315.067L174.185 303.546C174.096 303.186 173.814 302.904 173.454 302.815L161.933 299.971C160.919 299.721 160.919 298.279 161.933 298.029L173.454 295.185C173.814 295.096 174.096 294.814 174.185 294.454L177.029 282.933Z" fill="white" fill-opacity="0.87"/>
<path d="M299.029 189.933C299.279 188.919 300.721 188.919 300.971 189.933L303.815 201.454C303.904 201.814 304.186 202.096 304.546 202.185L316.067 205.029C317.081 205.279 317.081 206.721 316.067 206.971L304.546 209.815C304.186 209.904 303.904 210.186 303.815 210.546L300.971 222.067C300.721 223.081 299.279 223.081 299.029 222.067L296.185 210.546C296.096 210.186 295.814 209.904 295.454 209.815L283.933 206.971C282.919 206.721 282.919 205.279 283.933 205.029L295.454 202.185C295.814 202.096 296.096 201.814 296.185 201.454L299.029 189.933Z" fill="white" fill-opacity="0.87"/>
<defs>
<filter id="filter0_d_934_2554" x="16.757" y="32.1807" width="321.486" height="308.098" filterUnits="userSpaceOnUse" color-interpolation-filters="sRGB">
<feFlood flood-opacity="0" result="BackgroundImageFix"/>
<feColorMatrix in="SourceAlpha" type="matrix" values="0 0 0 0 0 0 0 0 0 0 0 0 0 0 0 0 0 0 127 0" result="hardAlpha"/>
<feOffset dy="4"/>
<feGaussianBlur stdDeviation="2"/>
<feColorMatrix type="matrix" values="0 0 0 0 0 0 0 0 0 0 0 0 0 0 0 0 0 0 0.25 0"/>
<feBlend mode="normal" in2="BackgroundImageFix" result="effect1_dropShadow_934_2554"/>
<feBlend mode="normal" in="SourceGraphic" in2="effect1_dropShadow_934_2554" result="shape"/>
</filter>
<linearGradient id="paint0_linear_934_2554" x1="337.753" y1="337" x2="33.3171" y2="16.8971" gradientUnits="userSpaceOnUse">
<stop stop-color="#536DD6"/>
<stop offset="1" stop-color="#34B0B0"/>
</linearGradient>
<linearGradient id="paint1_linear_934_2554" x1="101" y1="92" x2="255" y2="246" gradientUnits="userSpaceOnUse">
<stop stop-color="#536DD6"/>
<stop offset="1" stop-color="#34B0B0"/>
</linearGradient>
</defs>
</svg>
