<svg width="357" height="357" viewBox="0 0 357 357" fill="none" xmlns="http://www.w3.org/2000/svg">
<circle cx="259" cy="66" r="10" fill="#2DFF74" fill-opacity="0.38"/>
<circle cx="127" cy="39" r="5" fill="#2DFF74" fill-opacity="0.38"/>
<path d="M66.0291 161.933C66.2794 160.919 67.7206 160.919 67.9709 161.933L70.815 173.454C70.9041 173.814 71.1856 174.096 71.5462 174.185L83.0673 177.029C84.0811 177.279 84.0811 178.721 83.0673 178.971L71.5462 181.815C71.1856 181.904 70.9041 182.186 70.815 182.546L67.9709 194.067C67.7206 195.081 66.2794 195.081 66.0291 194.067L63.185 182.546C63.0959 182.186 62.8144 181.904 62.4538 181.815L50.9327 178.971C49.9189 178.721 49.9189 177.279 50.9327 177.029L62.4538 174.185C62.8144 174.096 63.0959 173.814 63.185 173.454L66.0291 161.933Z" fill="white" fill-opacity="0.87"/>
<g filter="url(#filter0_d_934_2526)">
<path d="M189.256 328.459C182.246 333.552 172.754 333.552 165.744 328.459L29.0027 229.11C21.993 224.018 19.0598 214.99 21.7373 206.75L73.9679 46.0003C76.6454 37.7599 84.3245 32.1807 92.989 32.1807L262.011 32.1806C270.675 32.1806 278.355 37.7598 281.032 46.0003L333.263 206.75C335.94 214.99 333.007 224.018 325.997 229.11L189.256 328.459Z" fill="url(#paint0_linear_934_2526)"/>
</g>
<path d="M163.964 72.089C170.104 61.1147 185.896 61.1147 192.036 72.089V72.089C196.455 79.9895 206.522 82.6869 214.3 78.0548V78.0548C225.104 71.6205 238.781 79.5167 238.611 92.0904V92.0904C238.488 101.142 245.858 108.512 254.91 108.389V108.389C267.483 108.219 275.379 121.896 268.945 132.7V132.7C264.313 140.478 267.011 150.545 274.911 154.964V154.964C285.885 161.104 285.885 176.896 274.911 183.036V183.036C267.011 187.455 264.313 197.522 268.945 205.3V205.3C275.379 216.104 267.483 229.781 254.91 229.611V229.611C245.858 229.488 238.488 236.858 238.611 245.91V245.91C238.781 258.483 225.104 266.379 214.3 259.945V259.945C206.522 255.313 196.455 258.011 192.036 265.911V265.911C185.896 276.885 170.104 276.885 163.964 265.911V265.911C159.545 258.011 149.478 255.313 141.7 259.945V259.945C130.896 266.379 117.219 258.483 117.389 245.91V245.91C117.512 236.858 110.142 229.488 101.09 229.611V229.611C88.5167 229.781 80.6205 216.104 87.0548 205.3V205.3C91.6869 197.522 88.9895 187.455 81.089 183.036V183.036C70.1147 176.896 70.1147 161.104 81.089 154.964V154.964C88.9895 150.545 91.6869 140.478 87.0548 132.7V132.7C80.6205 121.896 88.5167 108.219 101.09 108.389V108.389C110.142 108.512 117.512 101.142 117.389 92.0904V92.0904C117.219 79.5167 130.896 71.6205 141.7 78.0548V78.0548C149.478 82.6869 159.545 79.9895 163.964 72.089V72.089Z" fill="white"/>
<path fill-rule="evenodd" clip-rule="evenodd" d="M178 246C220.526 246 255 211.526 255 169C255 126.474 220.526 92 178 92C135.474 92 101 126.474 101 169C101 211.526 135.474 246 178 246ZM178 235C214.451 235 244 205.451 244 169C244 132.549 214.451 103 178 103C141.549 103 112 132.549 112 169C112 205.451 141.549 235 178 235Z" fill="#EAC5F7"/>
<path d="M154.104 140.537C160.314 140.537 165.039 141.833 168.279 144.425C171.519 146.963 173.139 150.392 173.139 154.712C173.139 157.304 172.437 159.518 171.033 161.354C169.683 163.136 168.063 164.486 166.173 165.404C167.307 165.836 168.36 166.376 169.332 167.024C170.304 167.672 171.168 168.482 171.924 169.454C172.68 170.426 173.274 171.56 173.706 172.856C174.138 174.152 174.354 175.664 174.354 177.392C174.354 179.714 173.841 181.793 172.815 183.629C171.843 185.465 170.466 187.031 168.684 188.327C166.902 189.623 164.769 190.595 162.285 191.243C159.855 191.945 157.182 192.296 154.266 192.296C148.65 192.296 144.411 191.513 141.549 189.947C138.687 188.381 137.256 186.383 137.256 183.953C137.256 182.495 137.607 181.253 138.309 180.227C139.011 179.147 139.875 178.31 140.901 177.716C141.981 178.472 143.412 179.282 145.194 180.146C147.03 180.956 149.406 181.361 152.322 181.361C155.076 181.361 157.101 180.875 158.397 179.903C159.747 178.931 160.422 177.662 160.422 176.096C160.422 174.53 159.882 173.342 158.802 172.532C157.776 171.722 155.967 171.317 153.375 171.317H145.761C145.383 170.723 145.059 169.994 144.789 169.13C144.519 168.266 144.384 167.24 144.384 166.052C144.384 164.81 144.492 163.757 144.708 162.893C144.978 161.975 145.329 161.219 145.761 160.625H153.375C157.263 160.625 159.207 159.14 159.207 156.17C159.207 154.766 158.586 153.632 157.344 152.768C156.102 151.904 154.239 151.472 151.755 151.472C149.541 151.472 147.597 151.742 145.923 152.282C144.249 152.768 142.872 153.389 141.792 154.145C140.874 153.497 140.118 152.714 139.524 151.796C138.93 150.824 138.633 149.69 138.633 148.394C138.633 145.694 140.037 143.723 142.845 142.481C145.653 141.185 149.406 140.537 154.104 140.537ZM187.523 180.956C186.929 179.606 186.281 178.094 185.579 176.42C184.931 174.746 184.229 172.829 183.473 170.669C182.771 168.509 182.015 166.052 181.205 163.298C180.449 160.49 179.639 157.277 178.775 153.659C179.531 152.903 180.53 152.255 181.772 151.715C183.068 151.121 184.472 150.824 185.984 150.824C187.874 150.824 189.44 151.229 190.682 152.039C191.924 152.795 192.842 154.253 193.436 156.413L199.835 178.688H200.159C200.807 176.852 201.428 174.854 202.022 172.694C202.67 170.534 203.291 168.32 203.885 166.052C204.479 163.73 205.019 161.435 205.505 159.167C206.045 156.845 206.504 154.577 206.882 152.363C208.826 151.337 210.959 150.824 213.281 150.824C215.171 150.824 216.737 151.229 217.979 152.039C219.221 152.849 219.842 154.253 219.842 156.251C219.842 157.709 219.653 159.41 219.275 161.354C218.897 163.244 218.384 165.269 217.736 167.429C217.142 169.589 216.413 171.83 215.549 174.152C214.739 176.42 213.875 178.661 212.957 180.875C212.039 183.089 211.094 185.195 210.122 187.193C209.15 189.137 208.205 190.892 207.287 192.458C205.775 195.104 204.371 197.264 203.075 198.938C201.779 200.612 200.537 201.908 199.349 202.826C198.161 203.798 196.973 204.446 195.785 204.77C194.597 205.148 193.355 205.337 192.059 205.337C189.791 205.337 187.955 204.662 186.551 203.312C185.147 201.962 184.31 200.207 184.04 198.047C185.768 196.697 187.496 195.185 189.224 193.511C190.952 191.891 192.518 190.217 193.922 188.489C193.004 188.219 192.005 187.598 190.925 186.626C189.899 185.6 188.765 183.71 187.523 180.956Z" fill="black"/>
<path d="M254.029 47.9327C254.279 46.9189 255.721 46.9189 255.971 47.9327L258.815 59.4538C258.904 59.8144 259.186 60.0959 259.546 60.185L271.067 63.0291C272.081 63.2794 272.081 64.7206 271.067 64.9709L259.546 67.815C259.186 67.9041 258.904 68.1856 258.815 68.5462L255.971 80.0673C255.721 81.0811 254.279 81.0811 254.029 80.0673L251.185 68.5462C251.096 68.1856 250.814 67.9041 250.454 67.815L238.933 64.9709C237.919 64.7206 237.919 63.2794 238.933 63.0291L250.454 60.185C250.814 60.0959 251.096 59.8144 251.185 59.4538L254.029 47.9327Z" fill="white" fill-opacity="0.87"/>
<path d="M100.029 47.9327C100.279 46.9189 101.721 46.9189 101.971 47.9327L104.815 59.4538C104.904 59.8144 105.186 60.0959 105.546 60.185L117.067 63.0291C118.081 63.2794 118.081 64.7206 117.067 64.9709L105.546 67.815C105.186 67.9041 104.904 68.1856 104.815 68.5462L101.971 80.0673C101.721 81.0811 100.279 81.0811 100.029 80.0673L97.185 68.5462C97.0959 68.1856 96.8144 67.9041 96.4538 67.815L84.9327 64.9709C83.9189 64.7206 83.9189 63.2794 84.9327 63.0291L96.4538 60.185C96.8144 60.0959 97.0959 59.8144 97.185 59.4538L100.029 47.9327Z" fill="white" fill-opacity="0.87"/>
<path d="M55.0291 189.933C55.2794 188.919 56.7206 188.919 56.9709 189.933L59.815 201.454C59.9041 201.814 60.1856 202.096 60.5462 202.185L72.0673 205.029C73.0811 205.279 73.0811 206.721 72.0673 206.971L60.5462 209.815C60.1856 209.904 59.9041 210.186 59.815 210.546L56.9709 222.067C56.7206 223.081 55.2794 223.081 55.0291 222.067L52.185 210.546C52.0959 210.186 51.8144 209.904 51.4538 209.815L39.9327 206.971C38.9189 206.721 38.9189 205.279 39.9327 205.029L51.4538 202.185C51.8144 202.096 52.0959 201.814 52.185 201.454L55.0291 189.933Z" fill="white" fill-opacity="0.87"/>
<defs>
<filter id="filter0_d_934_2526" x="16.757" y="32.1807" width="321.486" height="308.098" filterUnits="userSpaceOnUse" color-interpolation-filters="sRGB">
<feFlood flood-opacity="0" result="BackgroundImageFix"/>
<feColorMatrix in="SourceAlpha" type="matrix" values="0 0 0 0 0 0 0 0 0 0 0 0 0 0 0 0 0 0 127 0" result="hardAlpha"/>
<feOffset dy="4"/>
<feGaussianBlur stdDeviation="2"/>
<feColorMatrix type="matrix" values="0 0 0 0 0 0 0 0 0 0 0 0 0 0 0 0 0 0 0.25 0"/>
<feBlend mode="normal" in2="BackgroundImageFix" result="effect1_dropShadow_934_2526"/>
<feBlend mode="normal" in="SourceGraphic" in2="effect1_dropShadow_934_2526" result="shape"/>
</filter>
<linearGradient id="paint0_linear_934_2526" x1="337.753" y1="337" x2="33.3171" y2="16.8971" gradientUnits="userSpaceOnUse">
<stop stop-color="#EE9AE5"/>
<stop offset="1" stop-color="#5961F9"/>
</linearGradient>
</defs>
</svg>
