<svg width="357" height="357" viewBox="0 0 357 357" fill="none" xmlns="http://www.w3.org/2000/svg">
<circle cx="259" cy="66" r="10" fill="#2DFF74" fill-opacity="0.38"/>
<circle cx="127" cy="39" r="5" fill="#2DFF74" fill-opacity="0.38"/>
<path d="M66.0291 161.933C66.2794 160.919 67.7206 160.919 67.9709 161.933L70.815 173.454C70.9041 173.814 71.1856 174.096 71.5462 174.185L83.0673 177.029C84.0811 177.279 84.0811 178.721 83.0673 178.971L71.5462 181.815C71.1856 181.904 70.9041 182.186 70.815 182.546L67.9709 194.067C67.7206 195.081 66.2794 195.081 66.0291 194.067L63.185 182.546C63.0959 182.186 62.8144 181.904 62.4538 181.815L50.9327 178.971C49.9189 178.721 49.9189 177.279 50.9327 177.029L62.4538 174.185C62.8144 174.096 63.0959 173.814 63.185 173.454L66.0291 161.933Z" fill="white" fill-opacity="0.87"/>
<g filter="url(#filter0_d_934_2638)">
<path d="M189.256 328.459C182.246 333.552 172.754 333.552 165.744 328.459L29.0027 229.11C21.993 224.018 19.0598 214.99 21.7373 206.75L73.9679 46.0003C76.6454 37.7599 84.3245 32.1807 92.989 32.1807L262.011 32.1806C270.675 32.1806 278.355 37.7598 281.032 46.0003L333.263 206.75C335.94 214.99 333.007 224.018 325.997 229.11L189.256 328.459Z" fill="url(#paint0_linear_934_2638)"/>
</g>
<path d="M163.964 72.089C170.104 61.1147 185.896 61.1147 192.036 72.089V72.089C196.455 79.9895 206.522 82.6869 214.3 78.0548V78.0548C225.104 71.6205 238.781 79.5167 238.611 92.0904V92.0904C238.488 101.142 245.858 108.512 254.91 108.389V108.389C267.483 108.219 275.379 121.896 268.945 132.7V132.7C264.313 140.478 267.011 150.545 274.911 154.964V154.964C285.885 161.104 285.885 176.896 274.911 183.036V183.036C267.011 187.455 264.313 197.522 268.945 205.3V205.3C275.379 216.104 267.483 229.781 254.91 229.611V229.611C245.858 229.488 238.488 236.858 238.611 245.91V245.91C238.781 258.483 225.104 266.379 214.3 259.945V259.945C206.522 255.313 196.455 258.011 192.036 265.911V265.911C185.896 276.885 170.104 276.885 163.964 265.911V265.911C159.545 258.011 149.478 255.313 141.7 259.945V259.945C130.896 266.379 117.219 258.483 117.389 245.91V245.91C117.512 236.858 110.142 229.488 101.09 229.611V229.611C88.5167 229.781 80.6205 216.104 87.0548 205.3V205.3C91.6869 197.522 88.9895 187.455 81.089 183.036V183.036C70.1147 176.896 70.1147 161.104 81.089 154.964V154.964C88.9895 150.545 91.6869 140.478 87.0548 132.7V132.7C80.6205 121.896 88.5167 108.219 101.09 108.389V108.389C110.142 108.512 117.512 101.142 117.389 92.0904V92.0904C117.219 79.5167 130.896 71.6205 141.7 78.0548V78.0548C149.478 82.6869 159.545 79.9895 163.964 72.089V72.089Z" fill="white"/>
<path fill-rule="evenodd" clip-rule="evenodd" d="M178 246C220.526 246 255 211.526 255 169C255 126.474 220.526 92 178 92C135.474 92 101 126.474 101 169C101 211.526 135.474 246 178 246ZM178 235C214.451 235 244 205.451 244 169C244 132.549 214.451 103 178 103C141.549 103 112 132.549 112 169C112 205.451 141.549 235 178 235Z" fill="#63C480"/>
<path d="M150.782 181.442C154.238 181.442 156.992 180.551 159.044 178.769C161.15 176.987 162.203 174.53 162.203 171.398C161.609 171.884 160.502 172.451 158.882 173.099C157.316 173.747 155.291 174.071 152.807 174.071C150.323 174.071 148.055 173.72 146.003 173.018C144.005 172.316 142.277 171.29 140.819 169.94C139.361 168.536 138.227 166.835 137.417 164.837C136.607 162.839 136.202 160.517 136.202 157.871C136.202 155.549 136.607 153.362 137.417 151.31C138.227 149.204 139.442 147.368 141.062 145.802C142.682 144.182 144.68 142.913 147.056 141.995C149.486 141.023 152.294 140.537 155.48 140.537C161.852 140.537 166.847 142.67 170.465 146.936C174.137 151.202 175.973 157.277 175.973 165.161C175.973 169.643 175.406 173.585 174.272 176.987C173.138 180.389 171.545 183.224 169.493 185.492C167.495 187.76 165.092 189.461 162.284 190.595C159.476 191.729 156.371 192.296 152.969 192.296C148.649 192.296 145.274 191.702 142.844 190.514C140.414 189.326 139.199 187.517 139.199 185.087C139.199 183.953 139.442 182.873 139.928 181.847C140.468 180.767 141.089 179.957 141.791 179.417C143.249 180.065 144.761 180.578 146.327 180.956C147.947 181.28 149.432 181.442 150.782 181.442ZM155.966 163.703C156.992 163.703 158.018 163.487 159.044 163.055C160.124 162.623 161.015 162.029 161.717 161.273V160.301C161.663 157.223 161.123 154.982 160.097 153.578C159.071 152.174 157.559 151.472 155.561 151.472C153.779 151.472 152.375 152.039 151.349 153.173C150.377 154.253 149.891 155.738 149.891 157.628C149.891 159.464 150.458 160.949 151.592 162.083C152.726 163.163 154.184 163.703 155.966 163.703ZM189.145 180.956C188.551 179.606 187.903 178.094 187.201 176.42C186.553 174.746 185.851 172.829 185.095 170.669C184.393 168.509 183.637 166.052 182.827 163.298C182.071 160.49 181.261 157.277 180.397 153.659C181.153 152.903 182.152 152.255 183.394 151.715C184.69 151.121 186.094 150.824 187.606 150.824C189.496 150.824 191.062 151.229 192.304 152.039C193.546 152.795 194.464 154.253 195.058 156.413L201.457 178.688H201.781C202.429 176.852 203.05 174.854 203.644 172.694C204.292 170.534 204.913 168.32 205.507 166.052C206.101 163.73 206.641 161.435 207.127 159.167C207.667 156.845 208.126 154.577 208.504 152.363C210.448 151.337 212.581 150.824 214.903 150.824C216.793 150.824 218.359 151.229 219.601 152.039C220.843 152.849 221.464 154.253 221.464 156.251C221.464 157.709 221.275 159.41 220.897 161.354C220.519 163.244 220.006 165.269 219.358 167.429C218.764 169.589 218.035 171.83 217.171 174.152C216.361 176.42 215.497 178.661 214.579 180.875C213.661 183.089 212.716 185.195 211.744 187.193C210.772 189.137 209.827 190.892 208.909 192.458C207.397 195.104 205.993 197.264 204.697 198.938C203.401 200.612 202.159 201.908 200.971 202.826C199.783 203.798 198.595 204.446 197.407 204.77C196.219 205.148 194.977 205.337 193.681 205.337C191.413 205.337 189.577 204.662 188.173 203.312C186.769 201.962 185.932 200.207 185.662 198.047C187.39 196.697 189.118 195.185 190.846 193.511C192.574 191.891 194.14 190.217 195.544 188.489C194.626 188.219 193.627 187.598 192.547 186.626C191.521 185.6 190.387 183.71 189.145 180.956Z" fill="black"/>
<path d="M254.029 47.9327C254.279 46.9189 255.721 46.9189 255.971 47.9327L258.815 59.4538C258.904 59.8144 259.186 60.0959 259.546 60.185L271.067 63.0291C272.081 63.2794 272.081 64.7206 271.067 64.9709L259.546 67.815C259.186 67.9041 258.904 68.1856 258.815 68.5462L255.971 80.0673C255.721 81.0811 254.279 81.0811 254.029 80.0673L251.185 68.5462C251.096 68.1856 250.814 67.9041 250.454 67.815L238.933 64.9709C237.919 64.7206 237.919 63.2794 238.933 63.0291L250.454 60.185C250.814 60.0959 251.096 59.8144 251.185 59.4538L254.029 47.9327Z" fill="white" fill-opacity="0.87"/>
<path d="M100.029 47.9327C100.279 46.9189 101.721 46.9189 101.971 47.9327L104.815 59.4538C104.904 59.8144 105.186 60.0959 105.546 60.185L117.067 63.0291C118.081 63.2794 118.081 64.7206 117.067 64.9709L105.546 67.815C105.186 67.9041 104.904 68.1856 104.815 68.5462L101.971 80.0673C101.721 81.0811 100.279 81.0811 100.029 80.0673L97.185 68.5462C97.0959 68.1856 96.8144 67.9041 96.4538 67.815L84.9327 64.9709C83.9189 64.7206 83.9189 63.2794 84.9327 63.0291L96.4538 60.185C96.8144 60.0959 97.0959 59.8144 97.185 59.4538L100.029 47.9327Z" fill="white" fill-opacity="0.87"/>
<path d="M55.0291 189.933C55.2794 188.919 56.7206 188.919 56.9709 189.933L59.815 201.454C59.9041 201.814 60.1856 202.096 60.5462 202.185L72.0673 205.029C73.0811 205.279 73.0811 206.721 72.0673 206.971L60.5462 209.815C60.1856 209.904 59.9041 210.186 59.815 210.546L56.9709 222.067C56.7206 223.081 55.2794 223.081 55.0291 222.067L52.185 210.546C52.0959 210.186 51.8144 209.904 51.4538 209.815L39.9327 206.971C38.9189 206.721 38.9189 205.279 39.9327 205.029L51.4538 202.185C51.8144 202.096 52.0959 201.814 52.185 201.454L55.0291 189.933Z" fill="white" fill-opacity="0.87"/>
<path d="M177.029 282.933C177.279 281.919 178.721 281.919 178.971 282.933L181.815 294.454C181.904 294.814 182.186 295.096 182.546 295.185L194.067 298.029C195.081 298.279 195.081 299.721 194.067 299.971L182.546 302.815C182.186 302.904 181.904 303.186 181.815 303.546L178.971 315.067C178.721 316.081 177.279 316.081 177.029 315.067L174.185 303.546C174.096 303.186 173.814 302.904 173.454 302.815L161.933 299.971C160.919 299.721 160.919 298.279 161.933 298.029L173.454 295.185C173.814 295.096 174.096 294.814 174.185 294.454L177.029 282.933Z" fill="white" fill-opacity="0.87"/>
<path d="M299.029 189.933C299.279 188.919 300.721 188.919 300.971 189.933L303.815 201.454C303.904 201.814 304.186 202.096 304.546 202.185L316.067 205.029C317.081 205.279 317.081 206.721 316.067 206.971L304.546 209.815C304.186 209.904 303.904 210.186 303.815 210.546L300.971 222.067C300.721 223.081 299.279 223.081 299.029 222.067L296.185 210.546C296.096 210.186 295.814 209.904 295.454 209.815L283.933 206.971C282.919 206.721 282.919 205.279 283.933 205.029L295.454 202.185C295.814 202.096 296.096 201.814 296.185 201.454L299.029 189.933Z" fill="white" fill-opacity="0.87"/>
<defs>
<filter id="filter0_d_934_2638" x="16.757" y="32.1807" width="321.486" height="308.098" filterUnits="userSpaceOnUse" color-interpolation-filters="sRGB">
<feFlood flood-opacity="0" result="BackgroundImageFix"/>
<feColorMatrix in="SourceAlpha" type="matrix" values="0 0 0 0 0 0 0 0 0 0 0 0 0 0 0 0 0 0 127 0" result="hardAlpha"/>
<feOffset dy="4"/>
<feGaussianBlur stdDeviation="2"/>
<feColorMatrix type="matrix" values="0 0 0 0 0 0 0 0 0 0 0 0 0 0 0 0 0 0 0.25 0"/>
<feBlend mode="normal" in2="BackgroundImageFix" result="effect1_dropShadow_934_2638"/>
<feBlend mode="normal" in="SourceGraphic" in2="effect1_dropShadow_934_2638" result="shape"/>
</filter>
<linearGradient id="paint0_linear_934_2638" x1="337.753" y1="337" x2="33.3171" y2="16.8971" gradientUnits="userSpaceOnUse">
<stop stop-color="#45A1B5"/>
<stop offset="1" stop-color="#90FA2C"/>
</linearGradient>
</defs>
</svg>
