<svg width="357" height="357" viewBox="0 0 357 357" fill="none" xmlns="http://www.w3.org/2000/svg">
<circle cx="259" cy="66" r="10" fill="#2DFF74" fill-opacity="0.38"/>
<circle cx="127" cy="39" r="5" fill="#2DFF74" fill-opacity="0.38"/>
<path d="M66.0291 161.933C66.2794 160.919 67.7206 160.919 67.9709 161.933L70.815 173.454C70.9041 173.814 71.1856 174.096 71.5462 174.185L83.0673 177.029C84.0811 177.279 84.0811 178.721 83.0673 178.971L71.5462 181.815C71.1856 181.904 70.9041 182.186 70.815 182.546L67.9709 194.067C67.7206 195.081 66.2794 195.081 66.0291 194.067L63.185 182.546C63.0959 182.186 62.8144 181.904 62.4538 181.815L50.9327 178.971C49.9189 178.721 49.9189 177.279 50.9327 177.029L62.4538 174.185C62.8144 174.096 63.0959 173.814 63.185 173.454L66.0291 161.933Z" fill="white" fill-opacity="0.87"/>
<g filter="url(#filter0_d_934_2540)">
<path d="M189.256 328.459C182.246 333.552 172.754 333.552 165.744 328.459L29.0027 229.11C21.993 224.018 19.0598 214.99 21.7373 206.75L73.9679 46.0003C76.6454 37.7599 84.3245 32.1807 92.989 32.1807L262.011 32.1806C270.675 32.1806 278.355 37.7598 281.032 46.0003L333.263 206.75C335.94 214.99 333.007 224.018 325.997 229.11L189.256 328.459Z" fill="url(#paint0_linear_934_2540)"/>
</g>
<path d="M163.964 72.089C170.104 61.1147 185.896 61.1147 192.036 72.089V72.089C196.455 79.9895 206.522 82.6869 214.3 78.0548V78.0548C225.104 71.6205 238.781 79.5167 238.611 92.0904V92.0904C238.488 101.142 245.858 108.512 254.91 108.389V108.389C267.483 108.219 275.379 121.896 268.945 132.7V132.7C264.313 140.478 267.011 150.545 274.911 154.964V154.964C285.885 161.104 285.885 176.896 274.911 183.036V183.036C267.011 187.455 264.313 197.522 268.945 205.3V205.3C275.379 216.104 267.483 229.781 254.91 229.611V229.611C245.858 229.488 238.488 236.858 238.611 245.91V245.91C238.781 258.483 225.104 266.379 214.3 259.945V259.945C206.522 255.313 196.455 258.011 192.036 265.911V265.911C185.896 276.885 170.104 276.885 163.964 265.911V265.911C159.545 258.011 149.478 255.313 141.7 259.945V259.945C130.896 266.379 117.219 258.483 117.389 245.91V245.91C117.512 236.858 110.142 229.488 101.09 229.611V229.611C88.5167 229.781 80.6205 216.104 87.0548 205.3V205.3C91.6869 197.522 88.9895 187.455 81.089 183.036V183.036C70.1147 176.896 70.1147 161.104 81.089 154.964V154.964C88.9895 150.545 91.6869 140.478 87.0548 132.7V132.7C80.6205 121.896 88.5167 108.219 101.09 108.389V108.389C110.142 108.512 117.512 101.142 117.389 92.0904V92.0904C117.219 79.5167 130.896 71.6205 141.7 78.0548V78.0548C149.478 82.6869 159.545 79.9895 163.964 72.089V72.089Z" fill="white"/>
<path fill-rule="evenodd" clip-rule="evenodd" d="M178 246C220.526 246 255 211.526 255 169C255 126.474 220.526 92 178 92C135.474 92 101 126.474 101 169C101 211.526 135.474 246 178 246ZM178 235C214.451 235 244 205.451 244 169C244 132.549 214.451 103 178 103C141.549 103 112 132.549 112 169C112 205.451 141.549 235 178 235Z" fill="url(#paint1_linear_934_2540)"/>
<path d="M155.589 142.319C156.615 141.995 157.776 141.725 159.072 141.509C160.422 141.293 161.637 141.185 162.717 141.185C163.959 141.185 165.147 141.32 166.281 141.59C167.469 141.806 168.522 142.211 169.44 142.805C170.358 143.345 171.087 144.101 171.627 145.073C172.167 146.045 172.437 147.26 172.437 148.718V170.264H179.646C179.97 170.858 180.294 171.641 180.618 172.613C180.942 173.585 181.104 174.611 181.104 175.691C181.104 177.743 180.645 179.201 179.727 180.065C178.809 180.929 177.648 181.361 176.244 181.361H172.437V190.919C171.843 191.027 170.952 191.162 169.764 191.324C168.576 191.54 167.442 191.648 166.362 191.648C165.174 191.648 164.121 191.594 163.203 191.486C162.285 191.378 161.502 191.135 160.854 190.757C160.26 190.325 159.801 189.731 159.477 188.975C159.153 188.219 158.991 187.193 158.991 185.897V181.361H138.66C137.418 180.713 136.338 179.768 135.42 178.526C134.556 177.23 134.124 175.664 134.124 173.828C134.124 172.802 134.259 171.668 134.529 170.426C134.799 169.184 135.258 168.104 135.906 167.186L155.589 142.319ZM159.72 155.036H159.477L148.704 170.264H159.72V155.036ZM190.331 180.956C189.737 179.606 189.089 178.094 188.387 176.42C187.739 174.746 187.037 172.829 186.281 170.669C185.579 168.509 184.823 166.052 184.013 163.298C183.257 160.49 182.447 157.277 181.583 153.659C182.339 152.903 183.338 152.255 184.58 151.715C185.876 151.121 187.28 150.824 188.792 150.824C190.682 150.824 192.248 151.229 193.49 152.039C194.732 152.795 195.65 154.253 196.244 156.413L202.643 178.688H202.967C203.615 176.852 204.236 174.854 204.83 172.694C205.478 170.534 206.099 168.32 206.693 166.052C207.287 163.73 207.827 161.435 208.313 159.167C208.853 156.845 209.312 154.577 209.69 152.363C211.634 151.337 213.767 150.824 216.089 150.824C217.979 150.824 219.545 151.229 220.787 152.039C222.029 152.849 222.65 154.253 222.65 156.251C222.65 157.709 222.461 159.41 222.083 161.354C221.705 163.244 221.192 165.269 220.544 167.429C219.95 169.589 219.221 171.83 218.357 174.152C217.547 176.42 216.683 178.661 215.765 180.875C214.847 183.089 213.902 185.195 212.93 187.193C211.958 189.137 211.013 190.892 210.095 192.458C208.583 195.104 207.179 197.264 205.883 198.938C204.587 200.612 203.345 201.908 202.157 202.826C200.969 203.798 199.781 204.446 198.593 204.77C197.405 205.148 196.163 205.337 194.867 205.337C192.599 205.337 190.763 204.662 189.359 203.312C187.955 201.962 187.118 200.207 186.848 198.047C188.576 196.697 190.304 195.185 192.032 193.511C193.76 191.891 195.326 190.217 196.73 188.489C195.812 188.219 194.813 187.598 193.733 186.626C192.707 185.6 191.573 183.71 190.331 180.956Z" fill="black"/>
<path d="M254.029 47.9327C254.279 46.9189 255.721 46.9189 255.971 47.9327L258.815 59.4538C258.904 59.8144 259.186 60.0959 259.546 60.185L271.067 63.0291C272.081 63.2794 272.081 64.7206 271.067 64.9709L259.546 67.815C259.186 67.9041 258.904 68.1856 258.815 68.5462L255.971 80.0673C255.721 81.0811 254.279 81.0811 254.029 80.0673L251.185 68.5462C251.096 68.1856 250.814 67.9041 250.454 67.815L238.933 64.9709C237.919 64.7206 237.919 63.2794 238.933 63.0291L250.454 60.185C250.814 60.0959 251.096 59.8144 251.185 59.4538L254.029 47.9327Z" fill="white" fill-opacity="0.87"/>
<path d="M55.0291 189.933C55.2794 188.919 56.7206 188.919 56.9709 189.933L59.815 201.454C59.9041 201.814 60.1856 202.096 60.5462 202.185L72.0673 205.029C73.0811 205.279 73.0811 206.721 72.0673 206.971L60.5462 209.815C60.1856 209.904 59.9041 210.186 59.815 210.546L56.9709 222.067C56.7206 223.081 55.2794 223.081 55.0291 222.067L52.185 210.546C52.0959 210.186 51.8144 209.904 51.4538 209.815L39.9327 206.971C38.9189 206.721 38.9189 205.279 39.9327 205.029L51.4538 202.185C51.8144 202.096 52.0959 201.814 52.185 201.454L55.0291 189.933Z" fill="white" fill-opacity="0.87"/>
<path d="M177.029 282.933C177.279 281.919 178.721 281.919 178.971 282.933L181.815 294.454C181.904 294.814 182.186 295.096 182.546 295.185L194.067 298.029C195.081 298.279 195.081 299.721 194.067 299.971L182.546 302.815C182.186 302.904 181.904 303.186 181.815 303.546L178.971 315.067C178.721 316.081 177.279 316.081 177.029 315.067L174.185 303.546C174.096 303.186 173.814 302.904 173.454 302.815L161.933 299.971C160.919 299.721 160.919 298.279 161.933 298.029L173.454 295.185C173.814 295.096 174.096 294.814 174.185 294.454L177.029 282.933Z" fill="white" fill-opacity="0.87"/>
<path d="M299.029 189.933C299.279 188.919 300.721 188.919 300.971 189.933L303.815 201.454C303.904 201.814 304.186 202.096 304.546 202.185L316.067 205.029C317.081 205.279 317.081 206.721 316.067 206.971L304.546 209.815C304.186 209.904 303.904 210.186 303.815 210.546L300.971 222.067C300.721 223.081 299.279 223.081 299.029 222.067L296.185 210.546C296.096 210.186 295.814 209.904 295.454 209.815L283.933 206.971C282.919 206.721 282.919 205.279 283.933 205.029L295.454 202.185C295.814 202.096 296.096 201.814 296.185 201.454L299.029 189.933Z" fill="white" fill-opacity="0.87"/>
<defs>
<filter id="filter0_d_934_2540" x="16.757" y="32.1807" width="321.486" height="308.098" filterUnits="userSpaceOnUse" color-interpolation-filters="sRGB">
<feFlood flood-opacity="0" result="BackgroundImageFix"/>
<feColorMatrix in="SourceAlpha" type="matrix" values="0 0 0 0 0 0 0 0 0 0 0 0 0 0 0 0 0 0 127 0" result="hardAlpha"/>
<feOffset dy="4"/>
<feGaussianBlur stdDeviation="2"/>
<feColorMatrix type="matrix" values="0 0 0 0 0 0 0 0 0 0 0 0 0 0 0 0 0 0 0.25 0"/>
<feBlend mode="normal" in2="BackgroundImageFix" result="effect1_dropShadow_934_2540"/>
<feBlend mode="normal" in="SourceGraphic" in2="effect1_dropShadow_934_2540" result="shape"/>
</filter>
<linearGradient id="paint0_linear_934_2540" x1="337.753" y1="337" x2="33.3171" y2="16.8971" gradientUnits="userSpaceOnUse">
<stop stop-color="#F9482F"/>
<stop offset="1" stop-color="#F4997B"/>
</linearGradient>
<linearGradient id="paint1_linear_934_2540" x1="101" y1="92" x2="255" y2="246" gradientUnits="userSpaceOnUse">
<stop stop-color="#F9482F"/>
<stop offset="1" stop-color="#F4997B"/>
</linearGradient>
</defs>
</svg>
