<svg width="357" height="357" viewBox="0 0 357 357" fill="none" xmlns="http://www.w3.org/2000/svg">
<circle cx="259" cy="66" r="10" fill="#2DFF74" fill-opacity="0.38"/>
<circle cx="127" cy="39" r="5" fill="#2DFF74" fill-opacity="0.38"/>
<path d="M66.0291 161.933C66.2794 160.919 67.7206 160.919 67.9709 161.933L70.815 173.454C70.9041 173.814 71.1856 174.096 71.5462 174.185L83.0673 177.029C84.0811 177.279 84.0811 178.721 83.0673 178.971L71.5462 181.815C71.1856 181.904 70.9041 182.186 70.815 182.546L67.9709 194.067C67.7206 195.081 66.2794 195.081 66.0291 194.067L63.185 182.546C63.0959 182.186 62.8144 181.904 62.4538 181.815L50.9327 178.971C49.9189 178.721 49.9189 177.279 50.9327 177.029L62.4538 174.185C62.8144 174.096 63.0959 173.814 63.185 173.454L66.0291 161.933Z" fill="white" fill-opacity="0.87"/>
<g filter="url(#filter0_d_934_2512)">
<path d="M189.256 328.459C182.246 333.552 172.754 333.552 165.744 328.459L29.0027 229.11C21.993 224.018 19.0598 214.99 21.7373 206.75L73.9679 46.0003C76.6454 37.7599 84.3245 32.1807 92.989 32.1807L262.011 32.1806C270.675 32.1806 278.355 37.7598 281.032 46.0003L333.263 206.75C335.94 214.99 333.007 224.018 325.997 229.11L189.256 328.459Z" fill="url(#paint0_linear_934_2512)"/>
</g>
<path d="M163.964 72.089C170.104 61.1147 185.896 61.1147 192.036 72.089V72.089C196.455 79.9895 206.522 82.6869 214.3 78.0548V78.0548C225.104 71.6205 238.781 79.5167 238.611 92.0904V92.0904C238.488 101.142 245.858 108.512 254.91 108.389V108.389C267.483 108.219 275.379 121.896 268.945 132.7V132.7C264.313 140.478 267.011 150.545 274.911 154.964V154.964C285.885 161.104 285.885 176.896 274.911 183.036V183.036C267.011 187.455 264.313 197.522 268.945 205.3V205.3C275.379 216.104 267.483 229.781 254.91 229.611V229.611C245.858 229.488 238.488 236.858 238.611 245.91V245.91C238.781 258.483 225.104 266.379 214.3 259.945V259.945C206.522 255.313 196.455 258.011 192.036 265.911V265.911C185.896 276.885 170.104 276.885 163.964 265.911V265.911C159.545 258.011 149.478 255.313 141.7 259.945V259.945C130.896 266.379 117.219 258.483 117.389 245.91V245.91C117.512 236.858 110.142 229.488 101.09 229.611V229.611C88.5167 229.781 80.6205 216.104 87.0548 205.3V205.3C91.6869 197.522 88.9895 187.455 81.089 183.036V183.036C70.1147 176.896 70.1147 161.104 81.089 154.964V154.964C88.9895 150.545 91.6869 140.478 87.0548 132.7V132.7C80.6205 121.896 88.5167 108.219 101.09 108.389V108.389C110.142 108.512 117.512 101.142 117.389 92.0904V92.0904C117.219 79.5167 130.896 71.6205 141.7 78.0548V78.0548C149.478 82.6869 159.545 79.9895 163.964 72.089V72.089Z" fill="white"/>
<path fill-rule="evenodd" clip-rule="evenodd" d="M178 246C220.526 246 255 211.526 255 169C255 126.474 220.526 92 178 92C135.474 92 101 126.474 101 169C101 211.526 135.474 246 178 246ZM178 235C214.451 235 244 205.451 244 169C244 132.549 214.451 103 178 103C141.549 103 112 132.549 112 169C112 205.451 141.549 235 178 235Z" fill="url(#paint1_linear_934_2512)"/>
<path d="M154.555 140.537C157.633 140.537 160.36 140.942 162.736 141.752C165.112 142.508 167.137 143.561 168.811 144.911C170.485 146.261 171.754 147.854 172.618 149.69C173.482 151.526 173.914 153.497 173.914 155.603C173.914 161.273 170.701 166.673 164.275 171.803L153.664 180.308H173.104C173.428 180.902 173.725 181.658 173.995 182.576C174.319 183.494 174.481 184.493 174.481 185.573C174.481 187.517 174.049 188.921 173.185 189.785C172.321 190.595 171.187 191 169.783 191H141.676C140.488 190.19 139.543 189.164 138.841 187.922C138.193 186.626 137.869 185.114 137.869 183.386C137.869 181.55 138.247 180.011 139.003 178.769C139.759 177.473 140.596 176.447 141.514 175.691L152.692 166.133C154.096 164.945 155.257 163.892 156.175 162.974C157.093 162.002 157.822 161.138 158.362 160.382C158.956 159.626 159.361 158.924 159.577 158.276C159.847 157.628 159.982 157.007 159.982 156.413C159.982 154.901 159.307 153.713 157.957 152.849C156.661 151.985 155.041 151.553 153.097 151.553C150.937 151.553 148.993 151.904 147.265 152.606C145.591 153.254 144.187 153.956 143.053 154.712C142.135 154.064 141.379 153.254 140.785 152.282C140.191 151.31 139.894 150.176 139.894 148.88C139.894 146.072 141.217 143.993 143.863 142.643C146.509 141.239 150.073 140.537 154.555 140.537ZM187.721 180.956C187.127 179.606 186.479 178.094 185.777 176.42C185.129 174.746 184.427 172.829 183.671 170.669C182.969 168.509 182.213 166.052 181.403 163.298C180.647 160.49 179.837 157.277 178.973 153.659C179.729 152.903 180.728 152.255 181.97 151.715C183.266 151.121 184.67 150.824 186.182 150.824C188.072 150.824 189.638 151.229 190.88 152.039C192.122 152.795 193.04 154.253 193.634 156.413L200.033 178.688H200.357C201.005 176.852 201.626 174.854 202.22 172.694C202.868 170.534 203.489 168.32 204.083 166.052C204.677 163.73 205.217 161.435 205.703 159.167C206.243 156.845 206.702 154.577 207.08 152.363C209.024 151.337 211.157 150.824 213.479 150.824C215.369 150.824 216.935 151.229 218.177 152.039C219.419 152.849 220.04 154.253 220.04 156.251C220.04 157.709 219.851 159.41 219.473 161.354C219.095 163.244 218.582 165.269 217.934 167.429C217.34 169.589 216.611 171.83 215.747 174.152C214.937 176.42 214.073 178.661 213.155 180.875C212.237 183.089 211.292 185.195 210.32 187.193C209.348 189.137 208.403 190.892 207.485 192.458C205.973 195.104 204.569 197.264 203.273 198.938C201.977 200.612 200.735 201.908 199.547 202.826C198.359 203.798 197.171 204.446 195.983 204.77C194.795 205.148 193.553 205.337 192.257 205.337C189.989 205.337 188.153 204.662 186.749 203.312C185.345 201.962 184.508 200.207 184.238 198.047C185.966 196.697 187.694 195.185 189.422 193.511C191.15 191.891 192.716 190.217 194.12 188.489C193.202 188.219 192.203 187.598 191.123 186.626C190.097 185.6 188.963 183.71 187.721 180.956Z" fill="black"/>
<path d="M254.029 47.9327C254.279 46.9189 255.721 46.9189 255.971 47.9327L258.815 59.4538C258.904 59.8144 259.186 60.0959 259.546 60.185L271.067 63.0291C272.081 63.2794 272.081 64.7206 271.067 64.9709L259.546 67.815C259.186 67.9041 258.904 68.1856 258.815 68.5462L255.971 80.0673C255.721 81.0811 254.279 81.0811 254.029 80.0673L251.185 68.5462C251.096 68.1856 250.814 67.9041 250.454 67.815L238.933 64.9709C237.919 64.7206 237.919 63.2794 238.933 63.0291L250.454 60.185C250.814 60.0959 251.096 59.8144 251.185 59.4538L254.029 47.9327Z" fill="white" fill-opacity="0.87"/>
<path d="M55.0291 189.933C55.2794 188.919 56.7206 188.919 56.9709 189.933L59.815 201.454C59.9041 201.814 60.1856 202.096 60.5462 202.185L72.0673 205.029C73.0811 205.279 73.0811 206.721 72.0673 206.971L60.5462 209.815C60.1856 209.904 59.9041 210.186 59.815 210.546L56.9709 222.067C56.7206 223.081 55.2794 223.081 55.0291 222.067L52.185 210.546C52.0959 210.186 51.8144 209.904 51.4538 209.815L39.9327 206.971C38.9189 206.721 38.9189 205.279 39.9327 205.029L51.4538 202.185C51.8144 202.096 52.0959 201.814 52.185 201.454L55.0291 189.933Z" fill="white" fill-opacity="0.87"/>
<defs>
<filter id="filter0_d_934_2512" x="16.757" y="32.1807" width="321.486" height="308.098" filterUnits="userSpaceOnUse" color-interpolation-filters="sRGB">
<feFlood flood-opacity="0" result="BackgroundImageFix"/>
<feColorMatrix in="SourceAlpha" type="matrix" values="0 0 0 0 0 0 0 0 0 0 0 0 0 0 0 0 0 0 127 0" result="hardAlpha"/>
<feOffset dy="4"/>
<feGaussianBlur stdDeviation="2"/>
<feColorMatrix type="matrix" values="0 0 0 0 0 0 0 0 0 0 0 0 0 0 0 0 0 0 0.25 0"/>
<feBlend mode="normal" in2="BackgroundImageFix" result="effect1_dropShadow_934_2512"/>
<feBlend mode="normal" in="SourceGraphic" in2="effect1_dropShadow_934_2512" result="shape"/>
</filter>
<linearGradient id="paint0_linear_934_2512" x1="337.753" y1="337" x2="33.3171" y2="16.8971" gradientUnits="userSpaceOnUse">
<stop stop-color="#52E5E7"/>
<stop offset="1" stop-color="#130CB7"/>
</linearGradient>
<linearGradient id="paint1_linear_934_2512" x1="101" y1="92" x2="255" y2="246" gradientUnits="userSpaceOnUse">
<stop stop-color="#52E5E7"/>
<stop offset="1" stop-color="#130CB7"/>
</linearGradient>
</defs>
</svg>
