<svg width="196" height="196" viewBox="0 0 196 196" fill="none" xmlns="http://www.w3.org/2000/svg">
<path fill-rule="evenodd" clip-rule="evenodd" d="M144.231 93.0684C157.461 93.0684 168.187 103.822 168.187 117.087C168.187 128.223 160.626 137.589 150.371 140.308C147.068 141.244 145.033 145.107 145.033 149.537C145.033 154.672 148.35 158.836 152.442 158.836C152.954 158.836 153.453 158.77 153.978 158.561C176.258 153.853 192.982 134.317 192.982 110.577C192.982 105.372 192.243 100.333 190.753 95.6224C178.308 58.6338 143.421 32 102.33 32C93.2252 32 84.4242 33.3075 76.1047 35.7452C76.0196 35.6756 75.7835 35.5509 75.5213 35.4124C75.2538 35.2711 74.9593 35.1156 74.7705 34.9897C70.878 30.8598 21.0251 33.1017 18.1813 52.487C16.7823 55.6322 16.8383 59.1629 16.8977 62.9063C16.9064 63.458 16.9152 64.0144 16.9195 64.5748C16.9831 72.9706 20.3487 80.2234 20.3487 80.2234C20.3487 80.2234 20.2078 80.0849 17.9697 84.706C11.5604 97.4049 6.37874 115.18 6.37874 130.357C6.37874 132.632 6.45975 134.889 6.61886 137.123C4.59952 139.584 -0.702874 147.397 3.64329 157.345C3.64329 157.345 4.64056 158.819 4.68377 156.861C4.11422 151.659 5.32946 147.189 7.67995 146.031C8.82656 152.868 10.708 159.455 13.2329 165.709C13.2329 166.504 17.3686 167.149 22.4703 167.149C27.572 167.149 31.7077 166.504 31.7077 165.709C33.7896 154.876 42.8863 146.615 54.299 146.615C65.6191 146.615 75.0637 154.665 77.1584 165.551C77.1584 166.903 84.1908 168 92.8653 168C101.54 168 108.572 166.903 108.68 165.508C106.217 159.12 104.867 152.176 104.867 144.917C104.867 138.935 105.784 133.169 107.484 127.75C107.507 127.612 107.531 127.475 107.554 127.339L107.156 128.387C107.305 127.887 107.464 127.39 107.633 126.899C112.888 98.2194 137.257 94.0583 137.257 94.0583C139.532 93.4195 141.841 93.0684 144.231 93.0684Z" fill="url(#paint0_linear_1350_1998)"/>
<defs>
<linearGradient id="paint0_linear_1350_1998" x1="128.982" y1="36.309" x2="31.5105" y2="184.894" gradientUnits="userSpaceOnUse">
<stop stop-color="#07B6F7"/>
<stop offset="1" stop-color="#059CE5"/>
</linearGradient>
</defs>
</svg>
